<svg xmlns="http://www.w3.org/2000/svg" version="1.1" xmlns:xlink="http://www.w3.org/1999/xlink" xmlns:svgjs="http://svgjs.dev/svgjs" width="1000" height="1000" viewBox="0 0 1000 1000"><rect width="1000" height="1000" fill="#ffffff"></rect><g transform="matrix(0.7,0,0,0.7,150,150.00050996272932)"><svg viewBox="0 0 280 280" data-background-color="#f9e17e" preserveAspectRatio="xMidYMid meet" height="1000" width="1000" xmlns="http://www.w3.org/2000/svg" xmlns:xlink="http://www.w3.org/1999/xlink"><defs></defs><g id="tight-bounds" transform="matrix(1,0,0,1,0,0.0002031250000129603)"><svg viewBox="0 0 280 280" height="280" width="280"><g><svg viewBox="0 0 280 280" height="280" width="280"><g><svg viewBox="0 0 280 280" height="280" width="280"><g><svg viewBox="0 0 280 280" height="280" width="280"><g><svg viewBox="0 0 280 280" height="280" width="280"><g transform="matrix(1,0,0,1,94.74013912124597,74.00336708925556)"><svg viewBox="0 0 90.51972175750805 131.99326582148888" height="131.99326582148888" width="90.51972175750805"><g><svg xmlns="http://www.w3.org/2000/svg" xmlns:xlink="http://www.w3.org/1999/xlink" version="1.1" x="0" y="0" viewBox="15.3931303024292 0 68.57987213134766 100.00120544433594" enable-background="new 0 0 100 100" xml:space="preserve" width="90.51972175750805" height="131.99326582148888" class="icon-o-0" data-fill-palette-color="accent" id="o-0"><g fill="#f5ba41" data-fill-palette-color="accent"><path fill="#000000" d="M53.955 0c0.73 0.153 1.283 0.72 1.709 1.301 0.508 0.736 0.896 1.625 0.781 2.539-0.051 0.621-0.562 1.171-1.174 1.277-0.16 0.019-0.307-0.063-0.445-0.13-0.644-0.329-1.135-0.951-1.279-1.663C53.3 2.208 53.549 1.045 53.955 0z" data-fill-palette-color="accent"></path><path fill="#000000" d="M65.652 1.023c0.14-0.077 0.215 0.096 0.25 0.2 0.42 1.224 0.705 2.559 0.404 3.844-0.223 0.99-0.978 1.842-1.939 2.165-0.8-0.017-1.491-0.732-1.586-1.515-0.119-0.991 0.229-1.979 0.742-2.813C64.031 2.094 64.731 1.349 65.652 1.023z" data-fill-palette-color="accent"></path><path fill="#000000" d="M48.951 1.683c0.499 0.052 0.918 0.359 1.304 0.656 0.853 0.704 1.478 1.659 1.858 2.692 0.252 0.738 0.393 1.558 0.152 2.317-0.213 0.718-0.888 1.261-1.621 1.363-0.904-0.286-1.687-0.967-2.057-1.845-0.375-0.878-0.402-1.858-0.292-2.793C48.454 3.263 48.588 2.433 48.951 1.683z" data-fill-palette-color="accent"></path><path fill="#000000" d="M59.307 2.334c0.064-0.076 0.145-0.136 0.232-0.184 0.891 0.74 1.251 1.91 1.405 3.017 0.087 1.085-0.001 2.3-0.726 3.172-0.463 0.568-1.248 0.751-1.945 0.613-0.494-0.428-0.836-1.025-1.005-1.653-0.198-0.856-0.007-1.757 0.346-2.547C58.016 3.847 58.633 3.055 59.307 2.334z" data-fill-palette-color="accent"></path><path fill="#000000" d="M43.873 4.211c1.124-0.062 2.168 0.534 2.962 1.283 0.539 0.536 1.039 1.209 1.065 1.999 0.039 0.562-0.297 1.117-0.776 1.395-0.62 0.068-1.252-0.143-1.752-0.507-0.491-0.359-0.81-0.898-1.044-1.449C43.974 6.073 43.862 5.134 43.873 4.211z" data-fill-palette-color="accent"></path><path fill="#000000" d="M67.174 5.75c0.37-0.396 0.821-0.775 1.378-0.85 0.359 1.019 0.627 2.124 0.421 3.204-0.159 0.842-0.769 1.596-1.584 1.879-0.221 0.067-0.438-0.054-0.626-0.155-0.454-0.246-0.728-0.756-0.735-1.265C65.989 7.515 66.488 6.516 67.174 5.75z" data-fill-palette-color="accent"></path><path fill="#000000" d="M39.929 4.992c0.636-0.034 1.197 0.356 1.672 0.737 0.812 0.702 1.486 1.66 1.6 2.752 0.084 0.645-0.266 1.325-0.851 1.616-0.336 0.209-0.721-0.021-1.042-0.152C40.459 9.549 39.97 8.653 39.82 7.76 39.649 6.842 39.752 5.9 39.929 4.992z" data-fill-palette-color="accent"></path><path fill="#000000" d="M53.262 6.263c0.217-0.118 0.465 0.012 0.686 0.062 0.891 0.325 1.615 0.993 2.191 1.729 0.562 0.731 0.979 1.622 0.963 2.559 0.008 0.722-0.487 1.397-1.146 1.667-0.267 0.097-0.538-0.043-0.786-0.128-0.867-0.318-1.535-1.071-1.821-1.941C52.9 8.939 53.028 7.564 53.262 6.263z" data-fill-palette-color="accent"></path><path fill="#000000" d="M62.283 8.263c0.203-0.159 0.389-0.364 0.65-0.425 0.549 1.649 0.882 3.409 0.666 5.149-0.129 0.746-0.354 1.548-0.963 2.048-0.514 0.443-1.252 0.469-1.887 0.339-0.569-0.129-1.185-0.375-1.469-0.922-0.322-0.62-0.244-1.369-0.041-2.014C59.809 10.781 60.955 9.38 62.283 8.263z" data-fill-palette-color="accent"></path><path fill="#000000" d="M37.172 8.83c0.75 0.111 1.307 0.715 1.731 1.299 0.513 0.734 0.888 1.63 0.766 2.541-0.062 0.583-0.519 1.091-1.082 1.241-0.223 0.068-0.431-0.074-0.621-0.17-0.666-0.363-1.125-1.053-1.238-1.798C36.568 10.888 36.786 9.811 37.172 8.83z" data-fill-palette-color="accent"></path><path fill="#000000" d="M69.554 10.71c0.44-0.682 1.038-1.359 1.86-1.553 0.259 0.549 0.395 1.148 0.488 1.746 0.062 0.744 0.09 1.547-0.301 2.214-0.288 0.534-0.775 0.967-1.356 1.15-0.616 0.003-1.149-0.524-1.274-1.112C68.793 12.302 69.114 11.432 69.554 10.71z" data-fill-palette-color="accent"></path><path fill="#000000" d="M47.428 9.972c0.116 0.061 0.221 0.141 0.31 0.238 0.944 0.999 1.798 2.117 2.315 3.401 0.273 0.707 0.477 1.509 0.214 2.25-0.188 0.581-0.742 0.956-1.308 1.116-0.574 0.179-1.262 0.229-1.769-0.15-0.581-0.457-0.797-1.224-0.857-1.932C46.208 13.194 46.624 11.471 47.428 9.972z" data-fill-palette-color="accent"></path><path fill="#000000" d="M42.712 10.967c0.227 0.072 0.356 0.291 0.508 0.459 0.571 0.708 0.802 1.613 0.946 2.493 0.09 1.032 0.034 2.151-0.572 3.034-0.431 0.687-1.351 1.001-2.116 0.778-0.75-0.649-1.142-1.667-1.056-2.652C40.604 13.468 41.59 12.081 42.712 10.967z" data-fill-palette-color="accent"></path><path fill="#000000" d="M65.816 11.339c0.031 0.004 0.096 0.014 0.129 0.018 1.02 1.017 1.89 2.258 2.197 3.686 0.202 0.938-0.06 1.949-0.668 2.687-0.147 0.157-0.281 0.383-0.52 0.392-0.568 0.082-1.184-0.053-1.611-0.449-0.552-0.501-0.793-1.251-0.889-1.971-0.129-1.228 0.066-2.519 0.7-3.591C65.332 11.822 65.549 11.552 65.816 11.339z" data-fill-palette-color="accent"></path><path fill="#000000" d="M51.145 14.455c0.062-1.066 0.423-2.113 1.004-3.007 0.73 0.271 1.215 0.944 1.564 1.609 0.438 0.893 0.711 1.946 0.408 2.924-0.17 0.596-0.743 1.016-1.348 1.082-0.248 0.036-0.441-0.15-0.625-0.287C51.445 16.24 51.088 15.328 51.145 14.455z" data-fill-palette-color="accent"></path><path fill="#000000" d="M32.144 16.287c-0.191-1.176 0.024-2.385 0.474-3.479 0.766 0.159 1.351 0.747 1.804 1.351 0.548 0.785 0.977 1.727 0.874 2.707-0.037 0.639-0.512 1.21-1.122 1.39-0.256 0.115-0.508-0.06-0.729-0.172C32.768 17.717 32.315 17.024 32.144 16.287z" data-fill-palette-color="accent"></path><path fill="#000000" d="M76.141 13.549c0.32-0.134 0.698-0.284 1.04-0.154 0.08 1.114 0.108 2.282-0.372 3.32-0.347 0.895-1.221 1.543-2.172 1.64-0.254 0.01-0.446-0.191-0.623-0.344-0.505-0.483-0.545-1.276-0.307-1.899C74.128 14.977 75.054 14.058 76.141 13.549z" data-fill-palette-color="accent"></path><path fill="#000000" d="M55.835 14.218c0.104-0.04 0.2 0.06 0.294 0.093 1.292 0.686 2.537 1.578 3.302 2.852 0.667 1.049 0.704 2.489 0.051 3.55-0.62 0.376-1.45 0.457-2.099 0.103-0.65-0.343-1.107-0.959-1.43-1.605-0.568-1.118-0.762-2.408-0.617-3.649C55.424 15.092 55.555 14.612 55.835 14.218z" data-fill-palette-color="accent"></path><path fill="#000000" d="M36.503 15.027c0.28-0.057 0.555 0.067 0.813 0.161 1.014 0.424 1.807 1.254 2.388 2.168 0.419 0.672 0.693 1.468 0.609 2.27-0.075 0.673-0.581 1.259-1.21 1.488-0.439 0.01-0.854-0.204-1.228-0.416-0.738-0.452-1.221-1.232-1.417-2.063C36.139 17.453 36.29 16.212 36.503 15.027z" data-fill-palette-color="accent"></path><path fill="#000000" d="M70.851 15.756c0.386-0.217 0.808-0.41 1.26-0.406 0.247 1.338 0.391 2.763-0.093 4.067-0.348 1.069-1.334 1.919-2.453 2.053-0.653-0.199-1.186-0.797-1.264-1.482-0.1-0.754 0.165-1.5 0.53-2.148C69.316 16.993 70.006 16.252 70.851 15.756z" data-fill-palette-color="accent"></path><path fill="#000000" d="M42.862 20.411c0.551-1.496 1.448-2.867 2.605-3.964 0.182 0.18 0.264 0.428 0.375 0.653 0.689 1.542 1.206 3.221 1.092 4.929-0.078 0.665-0.293 1.375-0.848 1.797-0.599 0.474-1.423 0.471-2.138 0.334-0.581-0.116-1.128-0.522-1.296-1.106C42.368 22.184 42.571 21.25 42.862 20.411z" data-fill-palette-color="accent"></path><path fill="#000000" d="M62.11 18.164c0.108-0.396 0.178-0.811 0.383-1.172 1.21 0.77 2.176 1.882 2.94 3.085 0.474 0.814 0.925 1.709 0.887 2.677 0.019 0.682-0.425 1.361-1.076 1.584-0.684 0.268-1.492 0.397-2.174 0.06-0.688-0.346-1.032-1.098-1.201-1.812C61.553 21.121 61.771 19.604 62.11 18.164z" data-fill-palette-color="accent"></path><path fill="#000000" d="M28.687 17.209c1.112-0.054 2.159 0.509 2.942 1.262 0.538 0.522 1.015 1.184 1.074 1.954 0.059 0.568-0.262 1.126-0.728 1.436-0.614 0.105-1.253-0.116-1.757-0.466-0.68-0.475-1.05-1.262-1.274-2.037C28.729 18.664 28.67 17.932 28.687 17.209z" data-fill-palette-color="accent"></path><path fill="#000000" d="M78.738 17.399c0.216-0.081 0.454-0.181 0.686-0.093 0.162 1.157 0.319 2.391-0.131 3.506-0.26 0.716-0.853 1.294-1.565 1.557-0.187 0.066-0.385 0.135-0.585 0.1-0.544-0.208-0.971-0.733-1.012-1.321-0.055-0.716 0.222-1.413 0.606-2.003C77.233 18.402 77.9 17.738 78.738 17.399z" data-fill-palette-color="accent"></path><path fill="#000000" d="M50.2 17.566c0.333 0.06 0.609 0.271 0.894 0.44 0.908 0.583 1.783 1.343 2.145 2.392 0.201 0.678 0.151 1.451-0.211 2.067-0.165 0.172-0.414 0.207-0.635 0.261-0.611 0.134-1.231-0.193-1.615-0.656-0.722-0.875-0.999-2.044-0.957-3.16C49.833 18.439 49.984 17.982 50.2 17.566z" data-fill-palette-color="accent"></path><path fill="#000000" d="M33.96 20.063c0.784 0.009 1.451 0.518 1.988 1.043 0.662 0.686 1.224 1.552 1.286 2.527 0.07 0.715-0.422 1.495-1.142 1.64-0.916-0.131-1.706-0.805-2.028-1.666C33.632 22.48 33.72 21.226 33.96 20.063z" data-fill-palette-color="accent"></path><path fill="#000000" d="M74.008 20.528c0.2-0.071 0.414-0.155 0.631-0.114 0.243 1.11 0.333 2.296-0.029 3.391-0.265 0.832-0.953 1.522-1.796 1.759-0.131 0.026-0.27 0.084-0.401 0.039-0.48-0.173-0.874-0.592-0.979-1.098-0.17-0.744 0.119-1.503 0.505-2.132C72.438 21.585 73.137 20.89 74.008 20.528z" data-fill-palette-color="accent"></path><path fill="#000000" d="M48.417 23.205c0.397-0.265 0.8-0.534 1.244-0.711 0.034 0.002 0.101 0.005 0.134 0.007 0.553 1.01 0.527 2.228 0.267 3.32-0.228 0.94-0.679 1.883-1.479 2.466-0.569 0.426-1.379 0.433-2 0.118-0.174-0.073-0.226-0.27-0.298-0.425-0.367-0.849-0.31-1.86 0.128-2.672C46.872 24.438 47.618 23.76 48.417 23.205z" data-fill-palette-color="accent"></path><path fill="#000000" d="M54.207 22.663c0.021-0.034 0.06-0.104 0.079-0.138 1.222 0.551 2.358 1.321 3.308 2.271 0.619 0.661 1.254 1.459 1.24 2.413 0.002 0.669-0.467 1.231-1.012 1.566-0.459 0.315-1.055 0.496-1.6 0.327-0.677-0.253-1.117-0.884-1.412-1.515C54.135 26.049 53.998 24.318 54.207 22.663z" data-fill-palette-color="accent"></path><path fill="#000000" d="M39.048 23.005c1.042 0.411 1.963 1.098 2.764 1.875 0.699 0.698 1.258 1.594 1.354 2.596 0.062 0.691-0.092 1.404-0.425 2.012-0.585 0.413-1.412 0.486-2.062 0.177-0.667-0.348-1.158-0.962-1.492-1.625-0.535-1.104-0.771-2.356-0.635-3.578C38.621 23.95 38.783 23.451 39.048 23.005z" data-fill-palette-color="accent"></path><path fill="#000000" d="M81.236 23.292c0.803-0.246 1.65-0.211 2.478-0.154 0.029 0.76-0.414 1.447-0.899 1.996-0.562 0.592-1.277 1.128-2.116 1.201-0.564 0.064-1.152-0.247-1.402-0.759-0.07-0.224 0.02-0.458 0.08-0.674C79.639 24.071 80.411 23.492 81.236 23.292z" data-fill-palette-color="accent"></path><path fill="#000000" d="M67.941 24.267c0.485-0.328 0.979-0.663 1.521-0.886 0.034 0.004 0.101 0.009 0.135 0.012 0.511 0.913 0.585 2.002 0.43 3.021-0.185 1.207-0.638 2.445-1.584 3.263-0.677 0.612-1.777 0.695-2.535 0.188-0.538-0.848-0.605-1.963-0.266-2.9C66.073 25.833 66.977 24.96 67.941 24.267z" data-fill-palette-color="accent"></path><path fill="#000000" d="M30.503 23.469c0.275 0.074 0.517 0.23 0.769 0.356 1.064 0.581 2.056 1.312 2.871 2.214 0.504 0.576 0.953 1.269 0.986 2.058 0.023 0.633-0.375 1.206-0.885 1.546-0.488 0.354-1.119 0.625-1.723 0.42-0.731-0.262-1.18-0.964-1.477-1.644C30.382 26.864 30.302 25.128 30.503 23.469z" data-fill-palette-color="accent"></path><path fill="#000000" d="M77.321 24.187c0.251-0.121 0.481-0.309 0.763-0.35 0.211 1.268 0.145 2.584-0.146 3.836-0.223 0.833-0.532 1.689-1.161 2.308-0.38 0.371-0.932 0.606-1.464 0.46-0.784-0.214-1.557-0.76-1.788-1.575-0.17-0.766 0.199-1.517 0.649-2.113C75.009 25.67 76.133 24.844 77.321 24.187z" data-fill-palette-color="accent"></path><path fill="#000000" d="M60.006 24.617c0.881 0.002 1.672 0.51 2.302 1.088 0.722 0.683 1.347 1.558 1.452 2.571 0.1 0.726-0.337 1.498-1.025 1.759-0.217 0.042-0.432-0.034-0.636-0.094-0.75-0.233-1.396-0.791-1.721-1.508C59.82 27.247 59.818 25.889 60.006 24.617z" data-fill-palette-color="accent"></path><path fill="#000000" d="M51.645 26.257c0.27-0.178 0.512-0.442 0.847-0.488 0.566 0.865 0.628 1.96 0.434 2.95-0.166 0.751-0.454 1.532-1.073 2.027-0.438 0.376-1.079 0.419-1.606 0.23-0.127-0.035-0.204-0.149-0.268-0.256-0.387-0.666-0.458-1.501-0.185-2.222C50.145 27.571 50.867 26.846 51.645 26.257z" data-fill-palette-color="accent"></path><path fill="#000000" d="M24.874 26.886c1.078-0.304 2.226-0.017 3.186 0.508 0.59 0.333 1.157 0.782 1.443 1.415 0.287 0.571 0.163 1.332-0.315 1.763-0.463 0.181-0.984 0.165-1.466 0.072-0.68-0.153-1.25-0.614-1.68-1.147-0.521-0.663-0.883-1.439-1.14-2.238C24.858 27.138 24.853 27.011 24.874 26.886z" data-fill-palette-color="accent"></path><path fill="#000000" d="M79.99 28.111c0.742-0.561 1.644-0.916 2.572-0.989 0.405-0.014 0.834-0.015 1.206 0.167-0.042 0.417-0.237 0.795-0.386 1.18-0.345 0.783-0.819 1.538-1.512 2.057-0.688 0.53-1.654 0.68-2.47 0.389-0.401-0.42-0.547-1.072-0.355-1.621C79.232 28.816 79.589 28.421 79.99 28.111z" data-fill-palette-color="accent"></path><path fill="#000000" d="M36.63 29.166c0.627-0.059 1.218 0.265 1.727 0.599 0.936 0.657 1.715 1.606 1.996 2.733 0.132 0.577 0.039 1.26-0.412 1.681-0.21 0.217-0.487 0.454-0.814 0.383-0.908-0.132-1.724-0.757-2.107-1.589C36.448 31.796 36.482 30.435 36.63 29.166z" data-fill-palette-color="accent"></path><path fill="#000000" d="M45.058 29.387c0.097-0.11 0.23-0.028 0.288 0.076 0.651 0.875 0.734 2.03 0.605 3.079-0.108 0.642-0.327 1.295-0.791 1.769-0.41 0.451-1.099 0.601-1.665 0.391-0.191-0.067-0.277-0.268-0.377-0.425-0.396-0.681-0.466-1.542-0.169-2.273C43.351 30.933 44.16 30.069 45.058 29.387z" data-fill-palette-color="accent"></path><path fill="#000000" d="M71.36 29.575c0.19-0.014 0.496-0.195 0.62 0.007 0.164 1.13 0.144 2.311-0.234 3.399-0.358 1.042-1.333 1.886-2.45 1.956-0.509-0.164-0.903-0.632-1.049-1.14-0.147-0.76 0.125-1.536 0.541-2.167C69.403 30.704 70.282 29.902 71.36 29.575z" data-fill-palette-color="accent"></path><path fill="#000000" d="M57.887 30.708c0.671-0.097 1.38-0.1 2.016 0.165 0.527 0.209 0.896 0.754 0.898 1.322 0.039 0.667-0.107 1.413-0.645 1.863-0.588 0.481-1.402 0.467-2.115 0.369-1.369-0.253-2.638-0.882-3.785-1.652-0.124-0.117-0.383-0.18-0.383-0.372C55.051 31.535 56.439 30.938 57.887 30.708z" data-fill-palette-color="accent"></path><path fill="#000000" d="M31.753 31.601c0.799-0.187 1.663-0.274 2.453-0.004 0.532 0.176 0.977 0.661 1.023 1.231 0.041 0.546 0.004 1.13-0.288 1.609-0.29 0.505-0.87 0.779-1.436 0.82-0.861 0.082-1.7-0.182-2.5-0.469-0.938-0.364-1.83-0.861-2.628-1.475-0.017-0.029-0.05-0.086-0.067-0.114C29.324 32.421 30.519 31.904 31.753 31.601z" data-fill-palette-color="accent"></path><path fill="#000000" d="M74.147 32.068c0.765-0.404 1.677-0.32 2.497-0.164 1.304 0.268 2.553 0.817 3.618 1.616 0.019 0.023 0.053 0.069 0.071 0.093-1.213 0.883-2.572 1.599-4.046 1.922-0.734 0.12-1.569 0.168-2.203-0.289-0.583-0.427-0.753-1.202-0.72-1.886C73.367 32.831 73.664 32.302 74.147 32.068z" data-fill-palette-color="accent"></path><g fill="#f5ba41" data-fill-palette-color="accent"><path fill="#000000" d="M47.43 32.013c0.99 0.191 1.95 0.517 2.936 0.735 0.176 0.045 0.499 0.079 0.39 0.346-0.572 2.354-1.094 4.73-1.326 7.146-0.006 0.581-0.097 1.166 0.004 1.742 0.026 0.224 0.226 0.358 0.36 0.52 1.258 1.38 2.448 2.838 3.383 4.46 0.06 0.083 0.101 0.201 0.212 0.228 0.209-2.073 0.325-4.164 0.179-6.246-0.036-1.091-0.241-2.167-0.416-3.243-0.018-0.098-0.019-0.196-0.004-0.294 0.895-0.276 1.805-0.497 2.697-0.779 0.182-0.045 0.363-0.117 0.553-0.11 0.16 0.107 0.155 0.332 0.197 0.502 0.623 3.189 0.701 6.474 0.352 9.701 0.004 0.156-0.103 0.351 0.011 0.483 1.806-2.676 3.682-5.359 4.833-8.4 0.806-2.073 1.215-4.292 1.257-6.514 1.157-0.029 2.317-0.028 3.476-0.013 0.064 1.876-0.267 3.74-0.715 5.555-0.049 0.212-0.131 0.419-0.129 0.641 0.111-0.019 0.221-0.048 0.328-0.088 0.729-0.306 1.489-0.538 2.265-0.689 0.306-0.056 0.618-0.113 0.93-0.077 0.004 1.16 0.211 2.312 0.147 3.473-0.558 0.01-1.094 0.186-1.611 0.378-1.648 0.6-3.132 1.611-4.357 2.859-0.886 0.866-1.55 1.919-2.227 2.949-0.945 1.44-1.975 2.834-2.75 4.379-0.299 0.612-0.594 1.262-0.581 1.959 0.001 11.626-0.005 23.251 0.003 34.877-0.051 2.251 0.636 4.471 1.728 6.424 1.06 1.86 2.468 3.528 4.147 4.859 0.071 0.056 0.121 0.129 0.148 0.22-6.318 0.009-12.637 0.004-18.955 0.002 0.229-0.263 0.581-0.388 0.861-0.593 2.987-1.869 4.979-5.117 5.54-8.571 0.282-1.448 0.184-2.928 0.193-4.392 0.003-5.739-0.006-11.479 0.008-17.217-0.008-0.486 0.069-1.021-0.217-1.448-0.347-0.444-0.851-0.735-1.356-0.965-1.271-0.564-2.649-0.826-4.015-1.039-3.461-0.462-6.968-0.439-10.449-0.259-0.646 0.04-1.292 0.112-1.94 0.121-0.103-1.152-0.292-2.302-0.3-3.46 0.863-0.087 1.726-0.152 2.593-0.175 0.035-0.67 0.039-1.34-0.008-2.008-0.088-0.001-0.178 0.004-0.263-0.021-1.187-0.354-2.253-1.132-2.903-2.191-0.654-1.031-0.947-2.252-1.014-3.461-0.872-0.007-1.731 0.219-2.603 0.213 0.302-0.373 0.767-0.578 1.15-0.861 0.172-0.145 0.434-0.222 0.548-0.413-0.504-0.886-1.137-1.694-1.675-2.559 0.731 0.435 1.396 0.97 2.102 1.443 0.182 0.117 0.351 0.264 0.562 0.326 0.47-1.244 1.623-2.122 2.866-2.508 0.889-0.261 1.844-0.358 2.757-0.179 0.808 0.188 1.416 0.846 1.712 1.599 0.443 0.993 0.546 2.092 0.68 3.159 0.115 0.622 0.112 1.294 0.467 1.842 0.111 0.183 0.333 0.239 0.534 0.25 1.4 0.067 2.777-0.243 4.162-0.397 0.482-0.08 0.971-0.137 1.46-0.103-0.172 0.314-0.549 0.407-0.848 0.56-1.413 0.642-2.465 1.823-3.737 2.678-0.911 0.611-1.994 0.961-3.09 0.997-0.013 0.508-0.042 1.019 0.013 1.525 3.464-0.003 6.965 0.091 10.345 0.926 0.611 0.168 1.22 0.346 1.809 0.582 0.219 0.082 0.434 0.187 0.668 0.207-0.041-3.562-0.001-7.123-0.021-10.684-0.083-0.776-0.159-1.569-0.447-2.303-0.59-1.619-1.575-3.057-2.658-4.383-2.455-2.962-5.423-5.458-8.543-7.69-0.141-0.077-0.011-0.235 0.036-0.329 0.565-0.833 1.131-1.667 1.703-2.496 0.048-0.098 0.162-0.139 0.248-0.06 1.458 0.973 2.794 2.116 4.173 3.192 0.149-0.185 0.098-0.45 0.151-0.67C46.446 36.103 46.864 34.036 47.43 32.013zM33.145 52.379c0.214 0.486 0.578 0.92 1.044 1.183 0.454 0.261 1.048 0.191 1.459-0.122 0.316-0.238 0.644-0.511 0.795-0.887-0.589 0.223-1.116 0.688-1.782 0.65C34.067 53.133 33.623 52.695 33.145 52.379zM35.926 59.862l-0.003 0.082c0.324 0.003 0.647 0.011 0.971 0.005v-0.093C36.571 59.848 36.248 59.855 35.926 59.862zM37.821 59.915c0.177 0.06 0.396 0.079 0.57 0.003C38.294 59.787 37.934 59.814 37.821 59.915zM36.896 60.283c0.015 0.561-0.02 1.123 0.021 1.684 0.22-0.025 0.442-0.031 0.664-0.008-0.003-0.528 0.058-1.071-0.034-1.59C37.354 60.262 37.11 60.292 36.896 60.283z" data-fill-palette-color="accent"></path></g><path fill="#000000" d="M79.389 35.637c0.675-0.145 1.379-0.038 2.039 0.13 0.908 0.263 1.798 0.664 2.545 1.249-0.341 0.323-0.751 0.561-1.16 0.786-0.825 0.439-1.712 0.805-2.651 0.88-0.532 0.025-1.148-0.083-1.485-0.538-0.334-0.411-0.387-0.975-0.322-1.482C78.394 36.123 78.893 35.744 79.389 35.637z" data-fill-palette-color="accent"></path><path fill="#000000" d="M28.988 35.905c0.425-0.097 0.896-0.127 1.302 0.06 0.407 0.192 0.621 0.633 0.696 1.057 0.079 0.452 0.064 0.973-0.25 1.338-0.358 0.427-0.931 0.595-1.464 0.66-1.206 0.109-2.416-0.154-3.546-0.558-0.065-0.046-0.243-0.056-0.208-0.169C26.419 37.198 27.608 36.288 28.988 35.905z" data-fill-palette-color="accent"></path><path fill="#000000" d="M33.788 37.21c0.744-0.486 1.577-0.907 2.478-0.971 0.577-0.056 1.214 0.188 1.5 0.714 0.322 0.644 0.447 1.453 0.104 2.114-0.394 0.66-1.186 0.92-1.907 1.014-0.791 0.08-1.595 0.063-2.375-0.093-0.722-0.124-1.442-0.281-2.118-0.572C32.087 38.539 32.899 37.807 33.788 37.21z" data-fill-palette-color="accent"></path><path fill="#000000" d="M71.253 36.855c0.569-0.398 1.332-0.298 1.959-0.104 1.451 0.5 2.689 1.494 3.671 2.655 0.1 0.126 0.249 0.248 0.223 0.427-0.982 0.286-1.978 0.553-3.002 0.628-0.884 0.035-1.821 0.043-2.626-0.376-0.515-0.252-0.923-0.773-0.932-1.36C70.513 38.051 70.684 37.28 71.253 36.855z" data-fill-palette-color="accent"></path><path fill="#000000" d="M38.782 40.429c0.555-0.203 1.233-0.054 1.62 0.402 0.36 0.434 0.689 0.956 0.672 1.542 0.026 0.625-0.411 1.155-0.893 1.501-0.648 0.476-1.422 0.739-2.193 0.94-0.915 0.219-1.855 0.357-2.797 0.315 0.307-1.252 0.985-2.391 1.804-3.376C37.485 41.192 38.07 40.682 38.782 40.429z" data-fill-palette-color="accent"></path><path fill="#000000" d="M32.846 41.188c0.443-0.147 1.009-0.137 1.335 0.244 0.307 0.393 0.451 0.93 0.334 1.42-0.146 0.503-0.645 0.784-1.118 0.921-1.103 0.29-2.257 0.134-3.358-0.089 0.077-0.311 0.304-0.556 0.495-0.803C31.171 42.165 31.915 41.484 32.846 41.188z" data-fill-palette-color="accent"></path><path fill="#000000" d="M70.754 41.792c0.518-0.359 1.201-0.247 1.761-0.056 1.297 0.515 2.357 1.495 3.205 2.583 0.223 0.319 0.488 0.62 0.623 0.989-1.063 0.316-2.194 0.368-3.297 0.32-0.907-0.093-1.893-0.227-2.599-0.857-0.481-0.414-0.622-1.105-0.464-1.703C70.12 42.589 70.317 42.076 70.754 41.792z" data-fill-palette-color="accent"></path><path fill="#000000" d="M77.388 42.727c0.225-0.315 0.616-0.455 0.989-0.479 1.028-0.086 2.023 0.3 2.919 0.767 0.224 0.146 0.511 0.251 0.642 0.497-0.723 0.485-1.484 0.938-2.329 1.173-0.524 0.167-1.112 0.251-1.643 0.063-0.436-0.15-0.699-0.59-0.748-1.031C77.186 43.384 77.164 43.002 77.388 42.727z" data-fill-palette-color="accent"></path><path fill="#000000" d="M24.229 42.913c0.378-0.044 0.759-0.106 1.142-0.089-0.026 2.524-0.005 5.05-0.009 7.574-0.004 0.409-0.221 0.798-0.547 1.04-0.822 0.631-2.133 0.561-2.836-0.22-0.455-0.489-0.376-1.351 0.147-1.76 0.59-0.535 1.456-0.56 2.193-0.379 0.041-1.347 0.038-2.696-0.001-4.043-1.744 0.165-3.481 0.408-5.222 0.594-0.048 1.887 0.017 3.78-0.025 5.669-0.046 0.568-0.533 0.996-1.038 1.19-0.769 0.271-1.725 0.149-2.301-0.462-0.394-0.41-0.467-1.119-0.099-1.568 0.452-0.603 1.278-0.807 1.994-0.686 0.145 0.01 0.299 0.086 0.441 0.023-0.02-2.06-0.009-4.121 0.016-6.181C20.132 43.372 22.18 43.139 24.229 42.913z" data-fill-palette-color="accent"></path><path fill="#000000" d="M42.142 44.406c0.346-0.51 0.819-1.03 1.466-1.107 0.601-0.08 1.115 0.363 1.461 0.805 0.377 0.481 0.401 1.181 0.06 1.688-0.577 0.897-1.544 1.444-2.488 1.883-0.504 0.205-1.007 0.438-1.547 0.527l-0.08-0.027C41.071 46.855 41.431 45.527 42.142 44.406z" data-fill-palette-color="accent"></path><path fill="#000000" d="M64.248 44.929c0.225-0.451 0.67-0.821 1.188-0.841 0.792-0.061 1.516 0.354 2.145 0.79 0.956 0.703 1.743 1.623 2.362 2.632 0.112 0.202 0.245 0.398 0.302 0.625-1.516 0.217-3.098 0.278-4.578-0.171-0.616-0.2-1.257-0.529-1.574-1.123C63.775 46.234 63.947 45.505 64.248 44.929z" data-fill-palette-color="accent"></path><path fill="#000000" d="M25.521 59.306c0.173-0.185 0.459-0.151 0.689-0.205 1.294-0.106 2.627-0.062 3.866 0.355 0.651 0.228 1.317 0.547 1.722 1.128 0.357 0.512 0.283 1.218-0.034 1.731-0.29 0.527-0.756 1.021-1.377 1.115-0.734 0.104-1.439-0.246-2.02-0.663C27.149 61.87 26.257 60.61 25.521 59.306z" data-fill-palette-color="accent"></path><path fill="#000000" d="M23.787 64.338c1.019-0.616 2.178-1.104 3.39-1.062 0.483 0.02 1.04 0.189 1.259 0.663 0.172 0.416 0.086 0.893-0.078 1.297-0.219 0.478-0.772 0.706-1.276 0.658-1.021-0.057-1.953-0.557-2.797-1.099C24.105 64.661 23.879 64.554 23.787 64.338z" data-fill-palette-color="accent"></path><path fill="#000000" d="M29.577 65.738c0.531-0.35 1.183-0.659 1.833-0.492 0.442 0.107 0.721 0.514 0.882 0.913 0.22 0.489 0.23 1.119-0.125 1.55-0.341 0.415-0.857 0.633-1.359 0.782-1.181 0.32-2.425 0.271-3.625 0.105C27.705 67.454 28.548 66.458 29.577 65.738z" data-fill-palette-color="accent"></path><path fill="#000000" d="M33.201 67.742c0.111-0.596 0.615-1.069 1.212-1.158 0.619-0.088 1.322-0.063 1.829 0.349 0.557 0.466 0.689 1.244 0.67 1.933-0.07 1.56-0.663 3.05-1.451 4.38-0.673-0.626-1.177-1.424-1.596-2.239C33.391 69.998 32.974 68.871 33.201 67.742z" data-fill-palette-color="accent"></path><path fill="#000000" d="M30.315 69.688c0.275-0.443 0.757-0.868 1.318-0.758 0.646 0.151 1.273 0.748 1.192 1.456-0.088 0.628-0.555 1.114-1.021 1.506-0.665 0.537-1.422 0.959-2.23 1.239C29.475 71.946 29.698 70.713 30.315 69.688z" data-fill-palette-color="accent"></path></g></svg></g></svg></g><path d="M23.97 103.57c-0.536 1.686-1.105 2.864-1.707 3.536-0.602 0.672-1.369 1-2.299 0.985-0.926-0.007-2.268-0.29-4.026-0.849v0c-2.012-0.64-3.851-1.329-5.515-2.067-1.667-0.732-3.511-1.617-5.534-2.656v0c-0.336-0.164-0.568-0.432-0.694-0.804-0.124-0.378-0.108-0.815 0.05-1.311v0c0.158-0.497 0.402-0.833 0.731-1.009 0.331-0.182 0.703-0.208 1.115-0.077v0c0.196 0.062 0.333 0.117 0.412 0.164v0c2.361 1.197 4.269 2.131 5.724 2.802 1.449 0.67 3.046 1.282 4.79 1.837v0c0.96 0.305 1.682 0.481 2.164 0.526 0.489 0.047 0.868-0.048 1.138-0.285 0.27-0.238 0.507-0.677 0.71-1.318v0c0.42-1.32 0.786-3.308 1.099-5.964v0c0.01-0.076 0.041-0.196 0.092-0.359v0c0.129-0.405 0.369-0.674 0.721-0.807 0.358-0.131 0.74-0.132 1.145-0.002v0c0.784 0.249 1.11 0.99 0.977 2.221v0c-0.114 1.036-0.249 1.96-0.408 2.773-0.151 0.815-0.38 1.703-0.685 2.664zM30.059 82.023c0.183-0.263 0.392-0.438 0.629-0.525 0.237-0.087 0.557-0.036 0.962 0.152v0c0.354 0.165 0.606 0.395 0.756 0.692 0.15 0.296 0.154 0.597 0.012 0.901v0c-0.338 0.728-0.687 1.235-1.047 1.521-0.36 0.286-0.858 0.456-1.494 0.508v0c0.734 1.203 0.668 2.737-0.199 4.602v0c-0.904 1.946-2.149 3.137-3.734 3.573-1.592 0.432-3.321 0.215-5.186-0.652v0c-1.231-0.572-2.232-1.339-3.002-2.301-0.761-0.966-1.215-2.046-1.364-3.242-0.145-1.201 0.065-2.411 0.632-3.63v0c0.324-0.696 0.755-1.26 1.295-1.689 0.537-0.423 1.103-0.674 1.699-0.753v0l-0.497-0.321c-0.231-0.122-0.385-0.326-0.464-0.613-0.073-0.283-0.006-0.646 0.199-1.087v0c0.234-0.504 0.523-0.816 0.865-0.936 0.343-0.12 0.68-0.073 1.012 0.141v0c0.498 0.36 1.404 0.917 2.717 1.67v0c0.655 0.365 1.514 0.794 2.577 1.288v0l1.194 0.555c0.715 0.332 1.248 0.527 1.6 0.584 0.348 0.064 0.628-0.083 0.838-0.438zM26.212 84.862c-0.719-0.357-1.775-0.858-3.168-1.505v0c-0.777-0.361-1.494-0.388-2.151-0.081-0.654 0.301-1.13 0.772-1.427 1.412v0c-0.433 0.933-0.373 1.868 0.182 2.807 0.548 0.935 1.392 1.667 2.529 2.195v0c1.101 0.511 2.129 0.69 3.085 0.537 0.956-0.153 1.655-0.706 2.096-1.657v0c0.361-0.777 0.446-1.498 0.256-2.161-0.185-0.66-0.652-1.176-1.402-1.547zM41.87 54.846c0.339-0.44 0.721-0.7 1.145-0.779 0.421-0.074 0.84 0.05 1.259 0.372v0c1.048 0.808 1.78 1.83 2.194 3.067 0.415 1.237 0.469 2.564 0.164 3.982-0.301 1.413-0.953 2.771-1.957 4.075v0c-1.126 1.461-2.432 2.545-3.92 3.251-1.488 0.706-3.049 0.953-4.685 0.739-1.636-0.213-3.223-0.912-4.76-2.096v0c-1.586-1.222-2.775-2.644-3.567-4.267-0.798-1.627-1.149-3.266-1.056-4.916 0.094-1.65 0.635-3.116 1.623-4.398v0c1.335-1.733 2.839-2.707 4.512-2.924v0l-0.399-0.307c-0.266-0.205-0.402-0.495-0.407-0.872-0.001-0.381 0.148-0.765 0.445-1.15v0c0.318-0.413 0.672-0.659 1.063-0.739 0.386-0.075 0.78 0.043 1.182 0.352v0l2.238 1.764c0.524 0.421 0.845 0.841 0.963 1.261 0.108 0.421-0.013 0.86-0.365 1.316v0c-0.385 0.5-0.832 0.743-1.342 0.731v0c-1.12-0.041-2.071 0.053-2.853 0.282-0.772 0.227-1.483 0.762-2.131 1.604v0c-0.649 0.842-1 1.848-1.053 3.018-0.054 1.17 0.199 2.343 0.756 3.517 0.553 1.17 1.377 2.178 2.475 3.023v0c1.016 0.783 2.084 1.238 3.206 1.366 1.112 0.13 2.159-0.033 3.141-0.487 0.988-0.451 1.825-1.121 2.511-2.013v0c0.523-0.679 0.892-1.416 1.106-2.211 0.213-0.805 0.225-1.579 0.037-2.322-0.19-0.753-0.617-1.384-1.28-1.895v0c-0.386-0.297-0.605-0.652-0.659-1.066-0.055-0.423 0.083-0.849 0.414-1.278zM55.917 53.066c-1.637 1.581-3.371 2.426-5.201 2.535-1.83 0.109-3.543-0.663-5.139-2.315v0c-1.024-1.06-1.712-2.202-2.064-3.425-0.357-1.228-0.352-2.462 0.014-3.702 0.366-1.23 1.091-2.369 2.176-3.417v0c1.075-1.038 2.251-1.736 3.527-2.092 1.281-0.351 2.552-0.339 3.811 0.038 1.264 0.381 2.42 1.114 3.467 2.198v0c1.543 1.598 2.239 3.3 2.086 5.106-0.148 1.801-1.04 3.493-2.677 5.074zM54.029 51.2c0.912-0.881 1.385-1.838 1.417-2.87 0.028-1.027-0.452-2.052-1.437-3.073v0c-0.981-1.016-2.057-1.607-3.228-1.772-1.175-0.171-2.227 0.192-3.154 1.087v0c-0.898 0.867-1.31 1.876-1.238 3.026 0.072 1.15 0.62 2.256 1.644 3.316v0c1.024 1.06 2.057 1.587 3.1 1.581 1.048-0.011 2.013-0.443 2.896-1.295zM59.823 30.805c0.921-0.703 1.915-0.983 2.982-0.84 1.076 0.145 1.976 0.691 2.7 1.639v0c0.703 0.921 0.954 1.86 0.752 2.816-0.2 0.947-0.761 1.771-1.682 2.474v0c-0.441 0.337-0.806 0.503-1.094 0.499-0.288-0.004-0.551-0.162-0.788-0.473v0c-0.225-0.294-0.322-0.552-0.293-0.773 0.03-0.221 0.152-0.439 0.367-0.655v0c0.826-0.794 0.972-1.54 0.44-2.237v0c-0.25-0.327-0.538-0.53-0.865-0.608-0.332-0.074-0.659 0.012-0.981 0.257v0c-0.463 0.354-0.704 0.908-0.722 1.664-0.028 0.754 0.093 1.546 0.363 2.375 0.27 0.829 0.573 1.525 0.908 2.088v0c0.603 0.971 1.477 2.206 2.621 3.706v0c0.566 0.741 0.85 1.318 0.854 1.728 0.005 0.402-0.238 0.79-0.729 1.165v0c-0.474 0.362-0.896 0.533-1.264 0.512-0.369-0.02-0.717-0.233-1.045-0.639v0l-2.926-3.834c-0.62-0.812-1.192-1.522-1.717-2.131-0.525-0.609-1.176-1.332-1.954-2.17v0l-1.193-1.276c-0.277-0.306-0.372-0.652-0.287-1.036 0.085-0.375 0.334-0.721 0.749-1.037v0c0.698-0.532 1.324-0.497 1.878 0.105v0c0.432 0.498 0.949 1.113 1.55 1.845v0c-0.303-0.985-0.351-1.94-0.143-2.866 0.212-0.921 0.718-1.687 1.519-2.298zM77.976 30.102c0.446-0.27 0.827-0.368 1.144-0.294 0.313 0.067 0.595 0.309 0.847 0.725v0c0.589 0.974 0.753 1.961 0.492 2.96-0.255 0.996-0.87 1.788-1.844 2.377v0c-1.326 0.802-2.62 0.835-3.882 0.099-1.258-0.729-2.608-2.285-4.048-4.667v0c-0.298-0.493-0.693-1.179-1.185-2.06v0l-0.889 0.478c-0.784 0.426-1.392 0.281-1.825-0.435v0c-0.241-0.399-0.316-0.754-0.224-1.066 0.101-0.31 0.395-0.599 0.88-0.869v0l0.889-0.478c-0.573-1.2-1.174-2.611-1.802-4.234v0c-0.29-0.77-0.029-1.4 0.78-1.89v0c0.499-0.302 0.958-0.403 1.378-0.304 0.42 0.099 0.703 0.34 0.847 0.725v0c0.785 1.881 1.377 3.245 1.778 4.093v0l1.486-0.862c0.709-0.405 1.276-0.255 1.702 0.449v0c0.22 0.364 0.289 0.69 0.207 0.98-0.087 0.293-0.363 0.58-0.826 0.86v0l-1.434 0.868c0.469 0.854 0.846 1.519 1.134 1.994v0c1.025 1.696 1.819 2.83 2.382 3.403 0.569 0.57 1.053 0.734 1.451 0.493v0c0.252-0.153 0.379-0.353 0.381-0.603 0.002-0.249-0.12-0.596-0.365-1.041v0c-0.195-0.363-0.253-0.676-0.173-0.941 0.08-0.265 0.32-0.518 0.719-0.759zM90.365 30.178c-1.486 0.69-2.888 0.985-4.204 0.885-1.31-0.103-2.46-0.537-3.449-1.302-0.996-0.762-1.784-1.768-2.365-3.019v0c-0.583-1.256-0.816-2.524-0.698-3.802 0.117-1.279 0.558-2.439 1.321-3.482 0.757-1.039 1.78-1.857 3.067-2.455v0c1.169-0.543 2.327-0.8 3.474-0.772 1.137 0.024 2.173 0.333 3.106 0.928 0.94 0.592 1.669 1.448 2.189 2.567v0c0.306 0.659 0.418 1.178 0.336 1.556-0.088 0.381-0.418 0.704-0.99 0.969v0l-8.679 4.118c0.219 0.473 0.609 0.889 1.169 1.249 0.557 0.354 1.231 0.559 2.021 0.616 0.784 0.06 1.598-0.107 2.444-0.499v0c0.578-0.268 1.033-0.566 1.365-0.895 0.332-0.328 0.577-0.653 0.737-0.976 0.154-0.321 0.319-0.738 0.497-1.251v0c0.137-0.373 0.357-0.631 0.662-0.772v0c0.317-0.147 0.684-0.163 1.101-0.046 0.417 0.116 0.7 0.336 0.851 0.659v0c0.11 0.236 0.138 0.541 0.083 0.914v0c-0.128 0.8-0.487 1.639-1.076 2.518-0.587 0.885-1.574 1.649-2.962 2.292zM82.53 24.335l7.307-3.481c0.137-0.063 0.215-0.13 0.236-0.2 0.014-0.067-0.01-0.169-0.074-0.306v0c-0.361-0.777-1.005-1.261-1.931-1.451-0.933-0.187-1.916-0.041-2.949 0.439v0c-0.796 0.369-1.421 0.871-1.875 1.505-0.454 0.634-0.734 1.278-0.839 1.931-0.096 0.657-0.054 1.178 0.125 1.563zM104.64 24.625c-1.354 0.425-2.63 0.516-3.827 0.273-1.202-0.234-2.233-0.762-3.095-1.584-0.866-0.813-1.497-1.852-1.892-3.114v0c-0.412-1.315-0.5-2.613-0.263-3.895 0.233-1.273 0.779-2.396 1.638-3.37 0.859-0.974 1.975-1.676 3.349-2.107v0c1.459-0.458 2.84-0.499 4.143-0.124 1.297 0.377 2.334 1.028 3.114 1.955v0c0.195 0.233 0.327 0.458 0.394 0.674v0c0.156 0.497-0.085 0.943-0.723 1.337v0c-0.167 0.11-0.338 0.192-0.515 0.248v0c-0.301 0.094-0.576 0.087-0.826-0.022-0.25-0.109-0.538-0.306-0.864-0.591v0c-0.479-0.475-1.036-0.818-1.67-1.028-0.634-0.211-1.324-0.199-2.069 0.034v0c-0.765 0.24-1.377 0.662-1.835 1.266-0.457 0.603-0.739 1.31-0.844 2.118-0.103 0.816-0.021 1.652 0.248 2.509v0c0.38 1.21 1.006 2.074 1.879 2.591 0.873 0.517 1.935 0.579 3.184 0.187v0c1.171-0.367 1.962-0.949 2.374-1.747 0.402-0.802 0.487-1.597 0.254-2.386v0c-0.084-0.268-0.029-0.54 0.164-0.817 0.187-0.274 0.483-0.475 0.889-0.602v0c0.497-0.156 0.911-0.178 1.24-0.066 0.33 0.112 0.571 0.41 0.723 0.894v0c0.267 0.85 0.291 1.752 0.072 2.705-0.221 0.946-0.757 1.836-1.609 2.671-0.852 0.835-2.063 1.498-3.633 1.991zM119.908 21.058c-1.398 0.247-2.674 0.174-3.83-0.22-1.162-0.386-2.117-1.042-2.865-1.968-0.754-0.918-1.247-2.028-1.478-3.331v0c-0.24-1.357-0.16-2.656 0.24-3.896 0.394-1.233 1.08-2.277 2.056-3.132 0.977-0.855 2.174-1.408 3.592-1.66v0c1.506-0.267 2.88-0.131 4.124 0.408 1.238 0.54 2.183 1.319 2.837 2.339v0c0.164 0.256 0.265 0.496 0.305 0.719v0c0.091 0.513-0.205 0.924-0.888 1.233v0c-0.179 0.087-0.36 0.147-0.543 0.179v0c-0.311 0.055-0.583 0.013-0.816-0.127-0.234-0.14-0.494-0.372-0.782-0.697v0c-0.415-0.532-0.923-0.944-1.524-1.234-0.602-0.29-1.287-0.367-2.057-0.231v0c-0.79 0.14-1.45 0.48-1.981 1.019-0.531 0.54-0.901 1.204-1.109 1.993-0.207 0.796-0.233 1.636-0.076 2.52v0c0.221 1.249 0.732 2.186 1.531 2.81 0.8 0.624 1.845 0.822 3.134 0.594v0c1.208-0.214 2.068-0.69 2.578-1.428 0.502-0.743 0.688-1.521 0.558-2.334v0c-0.049-0.277 0.04-0.54 0.267-0.788 0.221-0.248 0.54-0.409 0.959-0.484v0c0.513-0.091 0.926-0.06 1.239 0.094 0.313 0.154 0.513 0.48 0.602 0.98v0c0.155 0.878 0.064 1.775-0.276 2.691-0.34 0.91-0.986 1.724-1.938 2.443-0.952 0.719-2.238 1.221-3.859 1.508zM130.902 4.471c-0.67 0.056-1.237-0.106-1.702-0.486-0.459-0.381-0.715-0.896-0.77-1.546v0c-0.055-0.656 0.111-1.21 0.5-1.662 0.395-0.453 0.938-0.709 1.628-0.767v0c0.649-0.055 1.206 0.108 1.672 0.489 0.459 0.381 0.715 0.889 0.768 1.525v0c0.055 0.649-0.112 1.207-0.499 1.673-0.395 0.46-0.927 0.718-1.597 0.774zM131.729 19.325c-0.499 0.042-0.923-0.05-1.272-0.275-0.349-0.225-0.531-0.55-0.546-0.975v0l-0.685-10.842c-0.017-0.453 0.121-0.812 0.415-1.077 0.294-0.272 0.693-0.43 1.198-0.472v0c0.519-0.044 0.95 0.047 1.293 0.273 0.349 0.225 0.533 0.571 0.552 1.037v0l0.691 10.789c0.015 0.425-0.131 0.778-0.438 1.059-0.3 0.28-0.703 0.441-1.208 0.483zM150.819 16.967c0.314 0.063 0.558 0.186 0.731 0.368 0.174 0.183 0.255 0.497 0.243 0.943v0c-0.01 0.391-0.121 0.714-0.333 0.968-0.212 0.255-0.486 0.379-0.822 0.37v0c-0.802-0.021-1.406-0.139-1.812-0.355-0.406-0.216-0.76-0.606-1.061-1.169v0c-0.811 1.152-2.245 1.702-4.301 1.649v0c-2.145-0.055-3.733-0.723-4.764-2.004-1.03-1.288-1.519-2.961-1.466-5.017v0c0.035-1.357 0.34-2.58 0.917-3.67 0.583-1.082 1.394-1.929 2.431-2.54 1.044-0.611 2.238-0.9 3.582-0.866v0c0.768 0.02 1.456 0.192 2.065 0.516 0.602 0.324 1.058 0.744 1.367 1.259v0l0.097-0.584c0.02-0.26 0.146-0.483 0.377-0.669 0.231-0.179 0.59-0.263 1.077-0.25v0c0.555 0.014 0.956 0.155 1.203 0.422 0.247 0.267 0.338 0.595 0.273 0.984v0c-0.132 0.6-0.282 1.653-0.451 3.157v0c-0.074 0.746-0.126 1.705-0.156 2.877v0l-0.034 1.316c-0.02 0.788 0.013 1.355 0.101 1.7 0.08 0.345 0.326 0.543 0.736 0.595zM146.683 14.567c0.041-0.801 0.081-1.97 0.12-3.505v0c0.022-0.857-0.239-1.525-0.782-2.006-0.536-0.48-1.158-0.729-1.864-0.747v0c-1.028-0.026-1.862 0.402-2.501 1.283-0.64 0.875-0.976 1.94-1.008 3.195v0c-0.031 1.213 0.214 2.228 0.735 3.043 0.521 0.816 1.306 1.237 2.354 1.264v0c0.857 0.022 1.551-0.187 2.084-0.626 0.532-0.432 0.819-1.066 0.862-1.901zM172.176 3.65c3.568 1.198 6.155 2.799 7.761 4.801 1.601 1.994 2.067 4.36 1.396 7.098v0c-0.474 1.938-1.383 3.516-2.725 4.732-1.343 1.217-3.031 2-5.065 2.35-2.04 0.348-4.283 0.222-6.726-0.376v0l-1.829-0.448c-0.653-0.16-1.098-0.389-1.335-0.687-0.244-0.3-0.3-0.723-0.166-1.269v0c0.235-0.959 0.785-1.333 1.651-1.12v0l0.49 0.12 2.839-13.112-0.16-0.039c-0.4-0.098-0.692-0.289-0.876-0.575-0.178-0.283-0.207-0.668-0.088-1.154v0c0.134-0.546 0.361-0.911 0.681-1.094 0.327-0.181 0.697-0.221 1.109-0.12v0l0.33 0.081c0.328-0.244 0.812-0.288 1.451-0.132v0c0.686 0.168 1.107 0.483 1.262 0.944zM168.959 19.603c1.449 0.221 2.799 0.188 4.048-0.1 1.251-0.294 2.321-0.844 3.209-1.65 0.891-0.813 1.491-1.851 1.801-3.116v0c0.858-3.503-1.223-6.176-6.243-8.019v0zM187.415 29.216c-1.519-0.615-2.691-1.438-3.517-2.467-0.819-1.027-1.287-2.164-1.403-3.41-0.123-1.248 0.074-2.511 0.591-3.788v0c0.52-1.284 1.287-2.319 2.302-3.107 1.014-0.787 2.163-1.258 3.446-1.411 1.276-0.156 2.572 0.032 3.888 0.565v0c1.195 0.484 2.173 1.154 2.936 2.011 0.759 0.848 1.24 1.815 1.442 2.904 0.209 1.091 0.082 2.208-0.382 3.352v0c-0.273 0.674-0.575 1.11-0.907 1.308-0.338 0.196-0.8 0.175-1.384-0.062v0l-8.934-3.531c-0.196 0.483-0.234 1.052-0.114 1.707 0.122 0.649 0.432 1.281 0.929 1.897 0.491 0.613 1.169 1.095 2.033 1.445v0c0.591 0.239 1.119 0.368 1.585 0.387 0.466 0.019 0.872-0.024 1.218-0.128 0.339-0.107 0.757-0.27 1.253-0.491v0c0.366-0.155 0.705-0.169 1.016-0.043v0c0.324 0.131 0.586 0.389 0.785 0.773 0.199 0.384 0.232 0.741 0.098 1.072v0c-0.098 0.241-0.301 0.47-0.61 0.684v0c-0.672 0.453-1.53 0.763-2.575 0.932-1.047 0.175-2.28-0.025-3.696-0.599zM186.335 19.502l7.532 2.963c0.14 0.057 0.242 0.069 0.308 0.036 0.059-0.035 0.116-0.123 0.173-0.263v0c0.322-0.794 0.236-1.595-0.259-2.401-0.501-0.809-1.278-1.428-2.333-1.856v0c-0.813-0.33-1.607-0.444-2.38-0.343-0.773 0.101-1.434 0.336-1.983 0.706-0.545 0.378-0.898 0.764-1.058 1.158zM197.605 33.344c-0.451-0.232-0.752-0.54-0.901-0.925-0.152-0.379-0.13-0.76 0.067-1.144v0l8.519-16.956c0.207-0.403 0.517-0.648 0.932-0.735 0.412-0.097 0.85-0.026 1.314 0.211v0c0.451 0.232 0.753 0.537 0.905 0.916 0.155 0.373 0.131 0.757-0.072 1.154v0l-8.56 16.969c-0.204 0.396-0.514 0.634-0.932 0.712-0.421 0.084-0.845 0.017-1.272-0.202zM231.389 33.291c0.318 0.387 0.487 0.743 0.508 1.067 0.016 0.331-0.1 0.66-0.348 0.988v0c-0.281 0.372-0.613 0.594-0.994 0.666-0.382 0.072-0.733-0.048-1.056-0.36v0c-1.448-1.371-2.789-2.524-4.025-3.459v0l-1.857-1.38c-1.05 1.57-2.041 2.987-2.972 4.251v0c0.28 0.186 0.716 0.503 1.306 0.95v0c0.82 0.621 1.497 1.158 2.029 1.613 0.537 0.449 0.997 0.887 1.379 1.315v0c0.568 0.67 0.605 1.331 0.112 1.981v0c-0.273 0.361-0.589 0.586-0.949 0.675-0.36 0.089-0.731-0.046-1.113-0.404v0c-1.173-1.051-2.249-1.947-3.228-2.688v0c-0.629-0.476-1.087-0.814-1.373-1.014v0c-1.527 1.983-2.987 3.771-4.382 5.364v0c-0.284 0.318-0.617 0.492-1 0.52-0.388 0.024-0.798-0.127-1.23-0.454v0c-0.432-0.327-0.691-0.695-0.777-1.103-0.09-0.404 0.003-0.759 0.278-1.067v0c1.374-1.531 2.778-3.228 4.214-5.091v0c-0.112-0.068-0.25-0.142-0.412-0.222-0.159-0.086-0.29-0.168-0.394-0.246v0c-0.268-0.203-0.4-0.488-0.398-0.856 0.004-0.358 0.141-0.715 0.41-1.07v0c0.294-0.388 0.615-0.597 0.963-0.625 0.348-0.029 0.731 0.068 1.149 0.289v0l0.525 0.294c1.142-1.543 2.151-3.002 3.029-4.376v0l-0.337-0.254c-0.415-0.314-0.653-0.636-0.713-0.966-0.059-0.32 0.081-0.704 0.42-1.152v0c0.306-0.405 0.607-0.632 0.904-0.683 0.301-0.056 0.625 0.026 0.974 0.247v0l0.39 0.217 0.12-0.193c0.211-0.347 0.519-0.527 0.924-0.539 0.41-0.008 0.845 0.162 1.304 0.51v0c0.82 0.621 0.999 1.328 0.536 2.121v0l-0.069 0.09c0.468 0.337 1.18 0.867 2.137 1.591v0c0.864 0.654 1.671 1.303 2.421 1.948 0.746 0.65 1.278 1.152 1.595 1.505zM233.295 58.31c0.185 0.261 0.278 0.518 0.28 0.769 0.001 0.252-0.156 0.536-0.47 0.853v0c-0.275 0.277-0.578 0.436-0.907 0.476-0.33 0.04-0.614-0.058-0.852-0.295v0c-0.569-0.565-0.928-1.066-1.075-1.501-0.147-0.436-0.137-0.962 0.031-1.578v0c-1.381 0.282-2.801-0.302-4.261-1.751v0c-1.523-1.512-2.22-3.087-2.09-4.727 0.134-1.644 0.926-3.196 2.375-4.656v0c0.956-0.964 2.018-1.644 3.185-2.041 1.167-0.387 2.338-0.448 3.511-0.18 1.179 0.272 2.246 0.881 3.2 1.828v0c0.545 0.541 0.928 1.138 1.148 1.792 0.216 0.649 0.259 1.267 0.131 1.854v0l0.471-0.358c0.193-0.175 0.438-0.251 0.734-0.229 0.291 0.028 0.609 0.213 0.955 0.557v0c0.394 0.391 0.59 0.769 0.586 1.132-0.003 0.364-0.162 0.665-0.477 0.904v0c-0.508 0.346-1.339 1.009-2.494 1.987v0c-0.565 0.492-1.261 1.154-2.087 1.986v0l-0.927 0.934c-0.555 0.56-0.92 0.995-1.094 1.306-0.178 0.306-0.136 0.619 0.127 0.938zM231.933 53.726c0.58-0.555 1.411-1.377 2.492-2.467v0c0.604-0.608 0.873-1.274 0.807-1.996-0.061-0.717-0.342-1.325-0.843-1.822v0c-0.73-0.724-1.63-0.985-2.701-0.783-1.066 0.198-2.041 0.742-2.924 1.633v0c-0.855 0.861-1.373 1.767-1.554 2.718-0.181 0.951 0.101 1.796 0.846 2.535v0c0.608 0.604 1.257 0.929 1.945 0.975 0.684 0.051 1.328-0.213 1.932-0.793zM245.199 70.093c-0.685 0.694-1.332 1.332-1.939 1.914-0.598 0.583-1.117 1.044-1.557 1.384v0c-1.053 0.813-2.178 1.319-3.377 1.516-1.208 0.197-2.374 0.062-3.496-0.405-1.119-0.461-2.101-1.24-2.948-2.336v0c-0.662-0.857-1.11-1.768-1.343-2.732-0.228-0.968-0.226-1.874 0.005-2.719 0.227-0.851 0.665-1.528 1.316-2.031v0c0.358-0.277 0.696-0.373 1.013-0.287 0.322 0.08 0.649 0.335 0.979 0.763v0c0.448 0.581 0.465 1.101 0.049 1.561v0c-0.968 1.103-0.928 2.332 0.12 3.689v0c0.721 0.933 1.559 1.43 2.514 1.489 0.96 0.065 2.014-0.347 3.165-1.236v0c0.309-0.239 0.621-0.519 0.937-0.84v0c-0.585-0.085-1.193-0.322-1.823-0.711-0.629-0.389-1.206-0.922-1.73-1.601v0c-0.809-1.047-1.281-2.169-1.415-3.364-0.125-1.194 0.064-2.341 0.566-3.439 0.508-1.103 1.27-2.046 2.285-2.83v0c1.053-0.813 2.184-1.328 3.395-1.543 1.211-0.216 2.377-0.108 3.499 0.325 1.122 0.433 2.088 1.173 2.897 2.219v0c0.821 1.064 1.209 2.098 1.163 3.105v0c0.378-0.127 0.749-0.214 1.112-0.261v0c0.451-0.089 0.843 0.081 1.173 0.51v0c0.26 0.336 0.417 0.731 0.471 1.182 0.059 0.457-0.057 0.807-0.347 1.048v0c-0.027 0.021-0.124 0.074-0.292 0.161v0c-0.31 0.092-0.864 0.295-1.661 0.607v0c-1.643 1.72-3.22 3.34-4.731 4.862zM239.424 66.133c0.444 0.575 1.012 1.007 1.703 1.296 0.695 0.295 1.272 0.356 1.729 0.186v0c1.358-1.326 2.693-2.699 4.005-4.12v0c0.149-0.323 0.186-0.746 0.111-1.268-0.07-0.517-0.284-1.007-0.64-1.468v0c-0.65-0.841-1.525-1.274-2.626-1.298-1.097-0.019-2.148 0.359-3.152 1.135v0c-0.944 0.729-1.552 1.597-1.823 2.603-0.267 1.012-0.036 1.99 0.693 2.934zM253.432 84.068c-0.768 0.601-1.491 1.152-2.167 1.651-0.667 0.502-1.24 0.894-1.72 1.175v0c-1.148 0.673-2.328 1.031-3.542 1.075-1.223 0.041-2.362-0.241-3.417-0.847-1.051-0.6-1.927-1.497-2.626-2.692v0c-0.548-0.935-0.876-1.895-0.985-2.88-0.103-0.989 0.014-1.888 0.351-2.697 0.333-0.815 0.854-1.43 1.564-1.847v0c0.39-0.229 0.737-0.281 1.041-0.157 0.309 0.121 0.601 0.415 0.874 0.883v0c0.371 0.633 0.321 1.151-0.15 1.554v0c-1.1 0.971-1.217 2.195-0.35 3.674v0c0.596 1.017 1.364 1.616 2.304 1.796 0.944 0.186 2.042-0.088 3.297-0.823v0c0.337-0.198 0.682-0.436 1.035-0.714v0c-0.57-0.159-1.142-0.471-1.717-0.937-0.575-0.466-1.079-1.068-1.512-1.807v0c-0.669-1.142-0.994-2.314-0.976-3.517 0.028-1.2 0.361-2.313 0.999-3.339 0.644-1.029 1.52-1.868 2.626-2.517v0c1.148-0.673 2.336-1.039 3.564-1.099 1.228-0.06 2.372 0.196 3.43 0.768 1.058 0.572 1.922 1.429 2.591 2.57v0c0.679 1.159 0.932 2.235 0.758 3.227v0c0.391-0.078 0.77-0.117 1.136-0.117v0c0.459-0.031 0.825 0.188 1.099 0.655v0c0.215 0.367 0.321 0.778 0.317 1.233 0 0.461-0.159 0.793-0.478 0.995v0c-0.03 0.017-0.133 0.058-0.31 0.122v0c-0.319 0.052-0.894 0.182-1.725 0.391v0c-1.849 1.497-3.619 2.904-5.311 4.221zM248.208 79.405c0.367 0.627 0.876 1.128 1.525 1.503 0.652 0.381 1.216 0.515 1.691 0.403v0c1.516-1.143 3.014-2.335 4.496-3.576v0c0.189-0.301 0.28-0.716 0.272-1.244-0.004-0.522-0.153-1.035-0.448-1.538v0c-0.537-0.917-1.351-1.457-2.441-1.621-1.086-0.158-2.176 0.083-3.27 0.724v0c-1.029 0.603-1.742 1.387-2.139 2.351-0.393 0.97-0.288 1.969 0.314 2.998zM265.277 85.26c-0.286-0.608-0.332-1.196-0.137-1.765 0.198-0.563 0.591-0.983 1.18-1.26v0c0.596-0.28 1.173-0.317 1.733-0.111 0.562 0.213 0.991 0.633 1.285 1.26v0c0.277 0.589 0.319 1.169 0.124 1.737-0.198 0.563-0.585 0.98-1.161 1.251v0c-0.589 0.277-1.17 0.316-1.742 0.115-0.569-0.21-0.996-0.619-1.282-1.227zM251.641 91.209c-0.213-0.453-0.275-0.882-0.186-1.288 0.089-0.406 0.331-0.69 0.725-0.852v0l9.923-4.419c0.418-0.174 0.803-0.169 1.155 0.014 0.358 0.18 0.644 0.5 0.86 0.959v0c0.222 0.472 0.287 0.907 0.194 1.307-0.089 0.406-0.35 0.699-0.78 0.878v0l-9.873 4.406c-0.393 0.162-0.775 0.149-1.144-0.041-0.367-0.184-0.658-0.505-0.874-0.964zM255.792 103.023c-0.735-2.155-0.762-4.083-0.082-5.786 0.68-1.702 2.107-2.924 4.281-3.665v0c1.395-0.476 2.721-0.613 3.978-0.411 1.263 0.2 2.378 0.729 3.345 1.587 0.958 0.854 1.68 1.995 2.166 3.423v0c0.482 1.415 0.613 2.775 0.393 4.082-0.227 1.309-0.779 2.453-1.655 3.433-0.882 0.982-2.037 1.716-3.465 2.203v0c-2.103 0.717-3.939 0.622-5.508-0.285-1.567-0.9-2.718-2.427-3.453-4.581zM258.284 102.108c0.409 1.201 1.074 2.035 1.994 2.504 0.918 0.462 2.049 0.464 3.392 0.006v0c1.337-0.456 2.329-1.178 2.978-2.167 0.655-0.991 0.774-2.097 0.357-3.317v0c-0.403-1.181-1.14-1.984-2.211-2.408-1.072-0.424-2.305-0.398-3.701 0.078v0c-1.395 0.476-2.312 1.187-2.75 2.133-0.436 0.953-0.456 2.01-0.059 3.171zM9.948 185.466c-0.536-1.686-0.753-2.977-0.649-3.873 0.103-0.896 0.539-1.607 1.308-2.131 0.76-0.529 2.018-1.074 3.776-1.633v0c2.012-0.64 3.911-1.14 5.696-1.499 1.783-0.366 3.8-0.709 6.051-1.029v0c0.369-0.06 0.713 0.025 1.031 0.255 0.32 0.236 0.559 0.603 0.716 1.099v0c0.158 0.497 0.153 0.912-0.013 1.246-0.165 0.34-0.454 0.576-0.866 0.707v0c-0.196 0.062-0.34 0.097-0.43 0.105v0c-2.618 0.387-4.715 0.726-6.292 1.019-1.57 0.291-3.227 0.713-4.971 1.268v0c-0.96 0.305-1.651 0.579-2.07 0.82-0.426 0.243-0.681 0.54-0.764 0.89-0.083 0.35-0.023 0.845 0.181 1.486v0c0.42 1.32 1.269 3.154 2.549 5.503v0c0.036 0.068 0.08 0.183 0.132 0.346v0c0.129 0.405 0.088 0.763-0.122 1.075-0.217 0.314-0.528 0.535-0.933 0.664v0c-0.784 0.249-1.478-0.167-2.081-1.248v0c-0.506-0.911-0.929-1.744-1.269-2.5-0.347-0.753-0.674-1.61-0.98-2.57zM21.677 206.447c0.083 0.309 0.081 0.582-0.006 0.819-0.087 0.237-0.332 0.449-0.736 0.637v0c-0.354 0.165-0.693 0.209-1.016 0.132-0.323-0.077-0.555-0.268-0.697-0.573v0c-0.338-0.728-0.5-1.321-0.487-1.781 0.013-0.46 0.205-0.95 0.577-1.469v0c-1.393-0.215-2.522-1.255-3.389-3.121v0c-0.904-1.946-1.011-3.666-0.321-5.158 0.696-1.495 1.977-2.676 3.843-3.543v0c1.231-0.572 2.463-0.842 3.695-0.809 1.229 0.042 2.348 0.391 3.357 1.049 1.012 0.664 1.8 1.606 2.366 2.825v0c0.324 0.696 0.475 1.389 0.455 2.079-0.023 0.683-0.196 1.278-0.52 1.784v0l0.566-0.172c0.242-0.097 0.498-0.084 0.767 0.04 0.263 0.127 0.497 0.412 0.703 0.853v0c0.234 0.504 0.286 0.925 0.157 1.265-0.129 0.34-0.383 0.567-0.761 0.683v0c-0.596 0.148-1.606 0.481-3.029 0.998v0c-0.701 0.265-1.583 0.645-2.646 1.139v0l-1.194 0.554c-0.715 0.332-1.208 0.614-1.478 0.846-0.273 0.225-0.342 0.533-0.206 0.923zM21.989 201.675c0.736-0.319 1.801-0.802 3.194-1.449v0c0.777-0.361 1.26-0.892 1.449-1.592 0.192-0.694 0.139-1.361-0.159-2.001v0c-0.433-0.933-1.187-1.49-2.261-1.671-1.068-0.184-2.171-0.012-3.31 0.516v0c-1.101 0.511-1.901 1.181-2.4 2.011-0.499 0.829-0.528 1.719-0.086 2.671v0c0.361 0.777 0.857 1.307 1.486 1.589 0.624 0.285 1.319 0.26 2.087-0.074zM43.998 228.09c0.339 0.44 0.493 0.875 0.462 1.306-0.036 0.426-0.263 0.799-0.681 1.122v0c-1.048 0.808-2.223 1.254-3.525 1.34-1.302 0.085-2.599-0.2-3.893-0.857-1.289-0.651-2.436-1.628-3.44-2.932v0c-1.126-1.461-1.84-3.001-2.144-4.619-0.303-1.618-0.144-3.191 0.48-4.719 0.623-1.528 1.704-2.883 3.241-4.068v0c1.586-1.222 3.265-2.009 5.036-2.361 1.777-0.356 3.451-0.279 5.022 0.233 1.571 0.512 2.851 1.408 3.838 2.691v0c1.335 1.733 1.894 3.435 1.677 5.108v0l0.399-0.307c0.266-0.205 0.581-0.262 0.946-0.171 0.369 0.097 0.702 0.338 0.999 0.724v0c0.318 0.413 0.466 0.818 0.444 1.216-0.026 0.393-0.241 0.744-0.643 1.053v0l-2.275 1.714c-0.541 0.399-1.029 0.602-1.465 0.61-0.435-0.003-0.828-0.232-1.18-0.689v0c-0.385-0.5-0.507-0.995-0.364-1.484v0c0.325-1.073 0.476-2.016 0.455-2.83-0.023-0.805-0.358-1.628-1.007-2.47v0c-0.649-0.842-1.532-1.438-2.651-1.788-1.118-0.35-2.316-0.405-3.593-0.166-1.272 0.236-2.457 0.777-3.554 1.622v0c-1.016 0.783-1.729 1.7-2.139 2.751-0.409 1.042-0.519 2.096-0.329 3.162 0.184 1.07 0.619 2.05 1.305 2.941v0c0.523 0.679 1.142 1.224 1.856 1.634 0.724 0.412 1.469 0.621 2.236 0.627 0.776 0.008 1.496-0.244 2.158-0.754v0c0.386-0.297 0.785-0.419 1.199-0.365 0.423 0.055 0.8 0.297 1.13 0.726zM45.695 242.094c-1.637-1.581-2.542-3.285-2.715-5.109-0.172-1.825 0.539-3.564 2.135-5.216v0c1.024-1.06 2.141-1.788 3.351-2.182 1.215-0.399 2.448-0.438 3.701-0.115 1.242 0.323 2.406 1.008 3.49 2.055v0c1.075 1.038 1.813 2.189 2.213 3.453 0.395 1.268 0.427 2.538 0.095 3.81-0.337 1.276-1.029 2.457-2.076 3.541v0c-1.543 1.598-3.22 2.352-5.031 2.263-1.805-0.085-3.527-0.918-5.163-2.5zM47.494 240.143c0.912 0.881 1.885 1.32 2.917 1.316 1.028-0.008 2.035-0.523 3.021-1.543v0c0.981-1.016 1.534-2.112 1.659-3.287 0.13-1.181-0.269-2.219-1.196-3.115v0c-0.898-0.867-1.92-1.244-3.067-1.132-1.147 0.112-2.233 0.698-3.257 1.759v0c-1.024 1.06-1.515 2.111-1.473 3.153 0.047 1.047 0.512 1.996 1.396 2.849zM68.517 242.381c0.921 0.703 1.453 1.588 1.596 2.655 0.145 1.076-0.145 2.089-0.868 3.037v0c-0.703 0.921-1.542 1.41-2.518 1.468-0.966 0.056-1.909-0.267-2.831-0.97v0c-0.441-0.337-0.698-0.645-0.769-0.924-0.072-0.279 0.011-0.574 0.248-0.885v0c0.225-0.294 0.447-0.456 0.668-0.486 0.221-0.03 0.464 0.031 0.729 0.181v0c0.984 0.587 1.742 0.532 2.274-0.166v0c0.25-0.327 0.369-0.659 0.358-0.994-0.016-0.34-0.185-0.633-0.507-0.879v0c-0.463-0.354-1.062-0.44-1.795-0.258-0.735 0.172-1.467 0.498-2.195 0.977-0.728 0.479-1.32 0.955-1.775 1.427v0c-0.778 0.838-1.739 2.007-2.882 3.506v0c-0.566 0.741-1.047 1.168-1.443 1.28-0.386 0.111-0.825-0.021-1.315-0.396v0c-0.474-0.362-0.75-0.724-0.828-1.085-0.078-0.361 0.036-0.753 0.341-1.176v0l2.927-3.834c0.62-0.812 1.154-1.552 1.602-2.218 0.449-0.667 0.974-1.486 1.578-2.457v0l0.915-1.488c0.222-0.348 0.53-0.531 0.924-0.55 0.384-0.017 0.783 0.132 1.198 0.448v0c0.698 0.532 0.829 1.146 0.394 1.841v0c-0.367 0.548-0.823 1.209-1.37 1.981v0c0.87-0.552 1.779-0.85 2.727-0.894 0.944-0.039 1.816 0.248 2.617 0.859zM75.833 258.018c0.446 0.27 0.71 0.562 0.793 0.876 0.086 0.308 0.003 0.671-0.249 1.087v0c-0.589 0.974-1.386 1.577-2.393 1.81-1 0.236-1.987 0.06-2.961-0.528v0c-1.326-0.802-1.957-1.932-1.892-3.391 0.061-1.453 0.812-3.371 2.253-5.753v0c0.298-0.493 0.722-1.162 1.273-2.007v0l-0.836-0.565c-0.741-0.496-0.896-1.102-0.463-1.818v0c0.241-0.399 0.521-0.63 0.84-0.694 0.321-0.054 0.714 0.071 1.179 0.376v0l0.836 0.565c0.796-1.065 1.767-2.253 2.912-3.563v0c0.548-0.614 1.226-0.677 2.036-0.187v0c0.499 0.302 0.802 0.661 0.91 1.079 0.108 0.418 0.025 0.78-0.249 1.087v0c-1.301 1.569-2.234 2.727-2.799 3.476v0l1.454 0.915c0.688 0.44 0.818 1.012 0.393 1.716v0c-0.22 0.364-0.477 0.577-0.771 0.639-0.3 0.059-0.682-0.052-1.146-0.332v0l-1.434-0.867c-0.539 0.812-0.952 1.455-1.24 1.931v0c-1.025 1.696-1.661 2.926-1.907 3.69-0.24 0.768-0.161 1.273 0.239 1.514v0c0.252 0.153 0.489 0.172 0.71 0.057 0.221-0.114 0.472-0.383 0.753-0.807v0c0.23-0.341 0.482-0.538 0.753-0.59 0.272-0.052 0.607 0.043 1.006 0.284zM84.025 268.063c-1.486-0.69-2.616-1.569-3.39-2.639-0.767-1.067-1.179-2.225-1.233-3.474-0.061-1.253 0.198-2.504 0.778-3.755v0c0.583-1.256 1.4-2.253 2.452-2.989 1.052-0.736 2.223-1.149 3.512-1.239 1.283-0.093 2.568 0.16 3.855 0.757v0c1.169 0.543 2.114 1.26 2.833 2.153 0.716 0.884 1.148 1.874 1.297 2.972 0.155 1.1-0.027 2.209-0.547 3.329v0c-0.306 0.659-0.629 1.08-0.971 1.261-0.348 0.179-0.807 0.136-1.379-0.13v0l-8.748-3.968c-0.219 0.473-0.286 1.039-0.199 1.699 0.09 0.654 0.368 1.301 0.834 1.94 0.46 0.637 1.113 1.152 1.959 1.544v0c0.578 0.268 1.1 0.423 1.565 0.465 0.464 0.042 0.872 0.019 1.222-0.068 0.344-0.09 0.769-0.233 1.275-0.428v0c0.373-0.137 0.712-0.134 1.018 0.007v0c0.317 0.147 0.566 0.418 0.746 0.811 0.18 0.394 0.195 0.752 0.045 1.076v0c-0.11 0.236-0.324 0.454-0.644 0.653v0c-0.693 0.419-1.566 0.687-2.617 0.804-1.055 0.123-2.276-0.137-3.663-0.781zM83.427 258.307l7.377 3.332c0.137 0.063 0.239 0.08 0.305 0.051 0.06-0.032 0.122-0.117 0.186-0.254v0c0.361-0.777 0.314-1.581-0.14-2.412-0.46-0.833-1.206-1.489-2.238-1.968v0c-0.796-0.369-1.583-0.523-2.36-0.46-0.777 0.063-1.449 0.265-2.017 0.607-0.563 0.351-0.935 0.719-1.113 1.104zM100.267 273.893c-1.354-0.425-2.453-1.078-3.297-1.961-0.853-0.878-1.398-1.901-1.636-3.067-0.246-1.162-0.171-2.375 0.225-3.638v0c0.412-1.315 1.082-2.431 2.009-3.347 0.918-0.912 2.008-1.522 3.269-1.831 1.261-0.309 2.578-0.248 3.952 0.183v0c1.459 0.458 2.616 1.212 3.472 2.264 0.849 1.05 1.329 2.177 1.439 3.383v0c0.027 0.303 0.007 0.563-0.06 0.779v0c-0.156 0.497-0.608 0.725-1.358 0.684v0c-0.2-0.005-0.388-0.035-0.564-0.091v0c-0.301-0.094-0.523-0.257-0.666-0.489-0.143-0.232-0.267-0.558-0.372-0.979v0c-0.122-0.664-0.384-1.263-0.783-1.797-0.4-0.535-0.973-0.919-1.719-1.154v0c-0.765-0.24-1.508-0.243-2.228-0.009-0.72 0.234-1.355 0.653-1.903 1.257-0.551 0.611-0.961 1.344-1.23 2.202v0c-0.38 1.21-0.358 2.277 0.064 3.199 0.422 0.923 1.258 1.58 2.507 1.972v0c1.171 0.367 2.153 0.341 2.946-0.078 0.788-0.428 1.312-1.033 1.571-1.814v0c0.084-0.268 0.285-0.46 0.601-0.577 0.31-0.118 0.668-0.114 1.074 0.013v0c0.497 0.156 0.849 0.374 1.056 0.655 0.207 0.28 0.234 0.663 0.082 1.147v0c-0.267 0.85-0.762 1.604-1.485 2.261-0.721 0.65-1.67 1.075-2.846 1.274-1.176 0.199-2.549 0.052-4.12-0.441zM117.361 277.905c-1.398-0.247-2.571-0.755-3.522-1.521-0.958-0.762-1.63-1.706-2.016-2.833-0.393-1.121-0.475-2.333-0.244-3.636v0c0.24-1.357 0.761-2.549 1.563-3.577 0.794-1.022 1.796-1.767 3.007-2.235 1.211-0.468 2.525-0.576 3.943-0.326v0c1.506 0.267 2.75 0.866 3.734 1.8 0.977 0.932 1.597 1.989 1.862 3.17v0c0.066 0.297 0.079 0.557 0.039 0.78v0c-0.091 0.513-0.51 0.797-1.258 0.853v0c-0.199 0.021-0.389 0.015-0.571-0.017v0c-0.311-0.055-0.552-0.188-0.723-0.4-0.171-0.211-0.336-0.519-0.495-0.923v0c-0.207-0.642-0.542-1.203-1.007-1.682-0.465-0.479-1.083-0.787-1.853-0.924v0c-0.79-0.14-1.527-0.048-2.211 0.277-0.684 0.325-1.26 0.821-1.726 1.491-0.468 0.676-0.78 1.456-0.937 2.341v0c-0.221 1.249-0.063 2.304 0.474 3.165 0.537 0.861 1.45 1.406 2.739 1.634v0c1.208 0.214 2.179 0.062 2.912-0.456 0.727-0.526 1.169-1.193 1.325-2v0c0.049-0.277 0.223-0.493 0.522-0.65 0.292-0.157 0.648-0.199 1.067-0.124v0c0.513 0.091 0.89 0.262 1.131 0.514 0.241 0.252 0.317 0.627 0.229 1.126v0c-0.155 0.878-0.55 1.689-1.183 2.433-0.632 0.738-1.518 1.28-2.659 1.629-1.141 0.348-2.522 0.379-4.142 0.092zM132.199 264.699c-0.67-0.056-1.202-0.311-1.598-0.764-0.389-0.452-0.555-1.003-0.5-1.652v0c0.055-0.656 0.312-1.174 0.77-1.555 0.466-0.381 1.043-0.542 1.734-0.484v0c0.649 0.055 1.171 0.308 1.566 0.761 0.389 0.452 0.556 0.996 0.503 1.632v0c-0.055 0.649-0.312 1.171-0.772 1.566-0.466 0.387-1.034 0.553-1.703 0.496zM130.532 279.483c-0.499-0.042-0.901-0.203-1.208-0.484-0.307-0.28-0.432-0.632-0.376-1.053v0l1.136-10.803c0.058-0.449 0.255-0.78 0.589-0.993 0.335-0.22 0.755-0.308 1.261-0.265v0c0.519 0.044 0.929 0.205 1.229 0.485 0.307 0.28 0.43 0.652 0.37 1.115v0l-1.121 10.752c-0.056 0.422-0.259 0.745-0.608 0.971-0.342 0.226-0.766 0.317-1.272 0.275zM151.055 276.849c0.317 0.047 0.566 0.157 0.749 0.331 0.183 0.174 0.28 0.483 0.291 0.929v0c0.01 0.391-0.085 0.719-0.283 0.984-0.199 0.266-0.466 0.403-0.802 0.412v0c-0.802 0.021-1.411-0.067-1.828-0.262-0.416-0.195-0.789-0.566-1.119-1.113v0c-0.751 1.192-2.155 1.814-4.211 1.866v0c-2.145 0.055-3.765-0.531-4.86-1.758-1.095-1.234-1.668-2.879-1.721-4.935v0c-0.035-1.357 0.208-2.594 0.728-3.712 0.527-1.111 1.293-1.998 2.298-2.662 1.012-0.664 2.189-1.013 3.533-1.047v0c0.768-0.02 1.464 0.117 2.089 0.41 0.618 0.293 1.094 0.689 1.429 1.187v0l0.068-0.588c0.007-0.261 0.121-0.49 0.342-0.688 0.221-0.191 0.576-0.292 1.062-0.304v0c0.555-0.014 0.963 0.106 1.223 0.359 0.26 0.254 0.368 0.577 0.323 0.969v0c-0.101 0.606-0.197 1.665-0.289 3.176v0c-0.036 0.748-0.039 1.709-0.008 2.881v0l0.033 1.316c0.02 0.788 0.083 1.352 0.188 1.693 0.098 0.34 0.353 0.526 0.765 0.556zM146.802 274.664c0-0.802-0.02-1.971-0.059-3.507v0c-0.022-0.857-0.316-1.511-0.884-1.963-0.56-0.452-1.193-0.669-1.899-0.651v0c-1.028 0.026-1.839 0.496-2.433 1.41-0.594 0.907-0.875 1.987-0.843 3.242v0c0.031 1.213 0.328 2.214 0.889 3.002 0.562 0.788 1.367 1.169 2.416 1.142v0c0.857-0.022 1.54-0.266 2.05-0.732 0.51-0.459 0.764-1.107 0.763-1.943zM166.372 257.218c3.718-0.585 6.752-0.361 9.101 0.673 2.341 1.029 3.847 2.912 4.517 5.65v0c0.474 1.938 0.397 3.757-0.231 5.456-0.629 1.7-1.764 3.174-3.407 4.424-1.649 1.251-3.696 2.175-6.139 2.773v0l-1.828 0.448c-0.653 0.16-1.153 0.162-1.502 0.007-0.355-0.153-0.6-0.503-0.733-1.048v0c-0.235-0.959 0.081-1.544 0.946-1.757v0l0.49-0.12-3.539-12.94-0.16 0.039c-0.4 0.098-0.747 0.063-1.042-0.105-0.289-0.169-0.492-0.497-0.611-0.983v0c-0.134-0.546-0.101-0.974 0.098-1.284 0.206-0.312 0.516-0.518 0.929-0.619v0l0.329-0.081c0.178-0.368 0.587-0.631 1.227-0.787v0c0.686-0.168 1.204-0.083 1.555 0.254zM170.888 272.853c1.388-0.474 2.569-1.127 3.544-1.959 0.974-0.838 1.668-1.82 2.084-2.945 0.415-1.132 0.467-2.331 0.158-3.596v0c-0.858-3.503-3.938-4.912-9.241-4.229v0zM193.072 269.321c-1.519 0.615-2.933 0.841-4.243 0.676-1.303-0.167-2.43-0.658-3.381-1.471-0.957-0.811-1.695-1.855-2.212-3.132v0c-0.52-1.284-0.69-2.561-0.51-3.832 0.18-1.271 0.677-2.409 1.492-3.412 0.808-1.001 1.869-1.767 3.184-2.3v0c1.195-0.484 2.364-0.684 3.508-0.6 1.135 0.08 2.154 0.44 3.057 1.081 0.909 0.638 1.596 1.528 2.059 2.672v0c0.273 0.674 0.359 1.197 0.259 1.57-0.107 0.376-0.452 0.683-1.037 0.92v0l-8.872 3.683c0.196 0.483 0.564 0.918 1.106 1.305 0.539 0.381 1.201 0.619 1.988 0.715 0.78 0.098 1.602-0.028 2.466-0.377v0c0.591-0.239 1.06-0.515 1.407-0.826 0.347-0.311 0.609-0.624 0.785-0.939 0.169-0.313 0.355-0.721 0.558-1.225v0c0.155-0.366 0.388-0.612 0.699-0.738v0c0.324-0.131 0.691-0.128 1.102 0.008 0.411 0.137 0.683 0.371 0.817 0.701v0c0.098 0.241 0.111 0.547 0.038 0.917v0c-0.167 0.793-0.567 1.613-1.199 2.461-0.63 0.855-1.654 1.569-3.071 2.143zM185.535 263.098l7.47-3.115c0.14-0.057 0.222-0.119 0.246-0.189 0.018-0.066-0.002-0.169-0.059-0.309v0c-0.322-0.794-0.941-1.309-1.857-1.544-0.923-0.233-1.912-0.135-2.967 0.292v0c-0.813 0.33-1.463 0.8-1.947 1.41-0.485 0.611-0.796 1.24-0.934 1.887-0.128 0.651-0.113 1.174 0.048 1.568zM204.052 263.792c-0.451 0.232-0.877 0.296-1.277 0.193-0.397-0.097-0.694-0.338-0.891-0.722v0l-8.811-16.806c-0.207-0.403-0.225-0.798-0.054-1.186 0.161-0.391 0.474-0.706 0.937-0.944v0c0.451-0.232 0.875-0.299 1.272-0.202 0.393 0.091 0.692 0.335 0.896 0.731v0l8.798 16.847c0.204 0.396 0.215 0.787 0.036 1.173-0.177 0.391-0.479 0.697-0.906 0.916zM216.859 232.085c0.459-0.201 0.847-0.267 1.165-0.198 0.323 0.074 0.608 0.275 0.856 0.603v0c0.281 0.372 0.405 0.751 0.371 1.138-0.034 0.387-0.245 0.693-0.633 0.918v0c-1.712 1.021-3.186 1.999-4.422 2.934v0l-1.833 1.412c1.225 1.437 2.32 2.776 3.284 4.016v0c0.255-0.219 0.678-0.552 1.269-0.999v0c0.82-0.621 1.521-1.126 2.104-1.515 0.578-0.395 1.125-0.718 1.639-0.97v0c0.799-0.364 1.445-0.221 1.937 0.43v0c0.273 0.361 0.404 0.726 0.392 1.097-0.012 0.37-0.242 0.691-0.691 0.961v0c-1.331 0.844-2.485 1.636-3.464 2.377v0c-0.629 0.476-1.078 0.825-1.349 1.046v0c1.494 2.008 2.818 3.899 3.972 5.674v0c0.229 0.36 0.306 0.728 0.229 1.104-0.082 0.38-0.339 0.734-0.771 1.061v0c-0.432 0.327-0.856 0.476-1.274 0.447-0.413-0.023-0.73-0.209-0.95-0.557v0c-1.1-1.738-2.352-3.551-3.755-5.439v0c-0.096 0.09-0.204 0.202-0.326 0.337-0.126 0.129-0.24 0.233-0.344 0.312v0c-0.268 0.203-0.578 0.253-0.931 0.15-0.343-0.101-0.649-0.33-0.918-0.685v0c-0.294-0.388-0.407-0.754-0.34-1.097 0.067-0.343 0.264-0.685 0.59-1.027v0l0.426-0.425c-1.175-1.518-2.305-2.886-3.389-4.104v0l-0.337 0.255c-0.415 0.314-0.79 0.456-1.123 0.424-0.324-0.03-0.655-0.269-0.994-0.717v0c-0.306-0.405-0.443-0.756-0.412-1.056 0.027-0.305 0.195-0.595 0.502-0.87v0l0.315-0.316-0.153-0.168c-0.277-0.298-0.366-0.643-0.267-1.036 0.104-0.397 0.385-0.769 0.844-1.116v0c0.82-0.621 1.549-0.6 2.187 0.06v0l0.068 0.091c0.451-0.358 1.155-0.9 2.112-1.624v0c0.864-0.654 1.708-1.254 2.532-1.801 0.829-0.541 1.456-0.917 1.882-1.127zM239.807 232.827c0.262-0.183 0.52-0.274 0.771-0.274 0.252 0.001 0.535 0.16 0.85 0.476v0c0.275 0.277 0.432 0.581 0.469 0.911 0.038 0.33-0.063 0.613-0.302 0.85v0c-0.569 0.565-1.072 0.92-1.509 1.063-0.437 0.144-0.963 0.13-1.578-0.042v0c0.271 1.383-0.323 2.799-1.783 4.247v0c-1.523 1.512-3.104 2.197-4.742 2.055-1.643-0.147-3.189-0.95-4.638-2.41v0c-0.956-0.964-1.629-2.03-2.017-3.2-0.379-1.17-0.43-2.341-0.154-3.513 0.281-1.177 0.898-2.239 1.852-3.186v0c0.545-0.541 1.145-0.919 1.8-1.135 0.65-0.211 1.269-0.25 1.855-0.116v0l-0.354-0.474c-0.174-0.195-0.248-0.44-0.223-0.736 0.03-0.291 0.218-0.608 0.564-0.95v0c0.394-0.391 0.773-0.584 1.136-0.578 0.364 0.006 0.664 0.167 0.9 0.484v0c0.342 0.51 0.999 1.347 1.969 2.509v0c0.488 0.569 1.144 1.27 1.97 2.101v0l0.927 0.935c0.555 0.56 0.988 0.927 1.298 1.103 0.305 0.181 0.618 0.14 0.939-0.12zM235.213 234.155c-0.55-0.584-1.367-1.421-2.449-2.511v0c-0.604-0.608-1.267-0.882-1.989-0.822-0.718 0.055-1.327 0.332-1.829 0.829v0c-0.73 0.724-0.998 1.623-0.803 2.695 0.19 1.067 0.727 2.046 1.611 2.937v0c0.855 0.861 1.757 1.386 2.707 1.574 0.95 0.188 1.797-0.088 2.541-0.827v0c0.608-0.604 0.938-1.25 0.989-1.938 0.056-0.683-0.203-1.329-0.778-1.937zM249.144 217.53c0.845 0.488 1.625 0.952 2.342 1.393 0.715 0.431 1.293 0.816 1.733 1.156v0c1.053 0.813 1.826 1.774 2.32 2.884 0.496 1.119 0.66 2.281 0.492 3.485-0.164 1.199-0.669 2.347-1.515 3.443v0c-0.662 0.857-1.43 1.521-2.304 1.989-0.879 0.465-1.756 0.692-2.632 0.683-0.88-0.004-1.646-0.258-2.297-0.761v0c-0.358-0.277-0.536-0.579-0.535-0.906-0.004-0.332 0.16-0.712 0.492-1.141v0c0.448-0.581 0.948-0.728 1.497-0.442v0c1.311 0.658 2.491 0.308 3.539-1.048v0c0.721-0.933 0.989-1.87 0.805-2.809-0.18-0.945-0.845-1.861-1.996-2.75v0c-0.309-0.239-0.659-0.47-1.049-0.693v0c0.066 0.588-0.01 1.236-0.227 1.942-0.217 0.707-0.588 1.4-1.112 2.079v0c-0.809 1.047-1.774 1.787-2.897 2.22-1.124 0.423-2.281 0.53-3.47 0.321-1.196-0.213-2.301-0.711-3.316-1.495v0c-1.053-0.813-1.837-1.778-2.351-2.895-0.515-1.117-0.705-2.273-0.571-3.468 0.135-1.195 0.607-2.317 1.416-3.364v0c0.821-1.064 1.725-1.7 2.709-1.91v0c-0.219-0.334-0.396-0.67-0.533-1.009v0c-0.2-0.414-0.134-0.836 0.197-1.264v0c0.26-0.336 0.601-0.588 1.025-0.755 0.428-0.172 0.795-0.149 1.102 0.071v0c0.027 0.021 0.103 0.102 0.229 0.242v0c0.168 0.277 0.504 0.761 1.008 1.454v0c2.079 1.155 4.046 2.271 5.899 3.348zM246.772 224.118c0.444-0.575 0.719-1.234 0.824-1.975 0.109-0.747 0.023-1.32-0.257-1.72v0c-1.626-0.979-3.292-1.923-4.998-2.833v0c-0.35-0.063-0.769 0.008-1.256 0.213-0.483 0.199-0.902 0.529-1.259 0.99v0c-0.65 0.841-0.847 1.798-0.591 2.869 0.259 1.067 0.891 1.987 1.894 2.763v0c0.944 0.729 1.937 1.098 2.98 1.106 1.046 0.002 1.934-0.468 2.663-1.413zM257.733 203.029c0.9 0.376 1.733 0.738 2.5 1.083 0.764 0.337 1.386 0.645 1.865 0.926v0c1.148 0.673 2.037 1.528 2.669 2.566 0.634 1.047 0.944 2.179 0.931 3.394-0.01 1.21-0.365 2.413-1.065 3.608v0c-0.548 0.935-1.225 1.69-2.031 2.266-0.813 0.573-1.654 0.91-2.524 1.012-0.874 0.108-1.666-0.046-2.376-0.462v0c-0.39-0.229-0.606-0.506-0.645-0.831-0.046-0.329 0.068-0.727 0.342-1.194v0c0.371-0.633 0.847-0.842 1.429-0.629v0c1.384 0.485 2.51-0.011 3.377-1.49v0c0.596-1.017 0.743-1.98 0.441-2.888-0.299-0.914-1.075-1.739-2.329-2.474v0c-0.337-0.198-0.714-0.382-1.13-0.554v0c0.14 0.575 0.147 1.227 0.022 1.955-0.125 0.729-0.405 1.463-0.838 2.203v0c-0.669 1.142-1.533 1.998-2.591 2.571-1.061 0.562-2.195 0.816-3.401 0.76-1.213-0.059-2.373-0.413-3.479-1.061v0c-1.148-0.673-2.048-1.53-2.701-2.572-0.653-1.042-0.988-2.165-1.006-3.368-0.018-1.203 0.307-2.375 0.976-3.516v0c0.679-1.159 1.494-1.906 2.444-2.239v0c-0.259-0.303-0.478-0.614-0.657-0.934v0c-0.251-0.385-0.239-0.812 0.035-1.279v0c0.215-0.367 0.522-0.66 0.92-0.879 0.402-0.225 0.769-0.248 1.102-0.07v0c0.03 0.017 0.116 0.088 0.258 0.211v0c0.201 0.253 0.596 0.691 1.185 1.314v0c2.209 0.881 4.302 1.738 6.277 2.571zM256.218 209.865c0.367-0.627 0.556-1.315 0.566-2.064 0.013-0.755-0.145-1.313-0.474-1.673v0c-1.738-0.764-3.51-1.489-5.318-2.174v0c-0.355-0.017-0.761 0.106-1.218 0.371-0.454 0.259-0.828 0.639-1.122 1.142v0c-0.537 0.917-0.611 1.891-0.222 2.921 0.393 1.025 1.136 1.858 2.23 2.5v0c1.029 0.603 2.061 0.842 3.096 0.717 1.038-0.131 1.859-0.711 2.462-1.74zM251.287 192.735c-0.286 0.608-0.71 1.018-1.272 1.231-0.559 0.207-1.134 0.171-1.723-0.106v0c-0.596-0.28-0.992-0.702-1.19-1.264-0.195-0.569-0.144-1.167 0.15-1.793v0c0.277-0.589 0.697-0.991 1.26-1.204 0.559-0.207 1.128-0.174 1.704 0.098v0c0.589 0.277 0.989 0.7 1.199 1.268 0.201 0.572 0.158 1.162-0.128 1.77zM264.564 199.447c-0.213 0.453-0.504 0.774-0.874 0.964-0.37 0.19-0.742 0.185-1.118-0.015v0l-9.731-4.827c-0.401-0.211-0.643-0.511-0.725-0.899-0.089-0.39-0.026-0.815 0.19-1.274v0c0.222-0.472 0.516-0.799 0.883-0.983 0.37-0.19 0.761-0.176 1.174 0.041v0l9.689 4.797c0.376 0.2 0.609 0.502 0.698 0.908 0.092 0.4 0.031 0.829-0.186 1.288zM269.719 186.302c-0.735 2.155-1.891 3.698-3.469 4.63-1.578 0.932-3.454 1.028-5.629 0.287v0c-1.395-0.476-2.529-1.177-3.4-2.105-0.878-0.93-1.438-2.03-1.679-3.299-0.236-1.261-0.111-2.606 0.376-4.034v0c0.482-1.415 1.21-2.572 2.183-3.471 0.98-0.897 2.115-1.466 3.407-1.707 1.298-0.238 2.661-0.114 4.089 0.372v0c2.103 0.717 3.498 1.914 4.187 3.59 0.691 1.67 0.669 3.582-0.065 5.737zM267.188 185.504c0.409-1.201 0.393-2.267-0.05-3.201-0.445-0.927-1.339-1.619-2.682-2.077v0c-1.337-0.456-2.564-0.49-3.681-0.103-1.124 0.385-1.893 1.187-2.309 2.407v0c-0.403 1.181-0.309 2.267 0.28 3.258 0.589 0.991 1.582 1.724 2.977 2.199v0c1.395 0.476 2.555 0.473 3.48-0.009 0.927-0.488 1.589-1.313 1.985-2.474zM1.945 142.288c0-4.677 3.791-8.469 8.468-8.468 4.677 0 8.469 3.791 8.469 8.468 0 4.677-3.791 8.469-8.469 8.469-4.677 0-8.469-3.791-8.468-8.469zM261.118 142.288c0-4.677 3.791-8.469 8.469-8.468 4.677 0 8.469 3.791 8.468 8.468 0 4.677-3.791 8.469-8.468 8.469-4.677 0-8.469-3.791-8.469-8.469z" fill="#000000" data-fill-palette-color="primary"></path></svg></g></svg></g></svg></g></svg></g></svg><rect width="280" height="280" fill="none" stroke="none" visibility="hidden"></rect></g></svg></g></svg>