<svg id="visual" viewBox="0 0 900 600" width="900" height="600" xmlns="http://www.w3.org/2000/svg" xmlns:xlink="http://www.w3.org/1999/xlink" version="1.1"><path d="M0 287L18.8 303.7C37.7 320.3 75.3 353.7 112.8 346.5C150.3 339.3 187.7 291.7 225.2 270.3C262.7 249 300.3 254 337.8 267.3C375.3 280.7 412.7 302.3 450.2 320.8C487.7 339.3 525.3 354.7 562.8 343.8C600.3 333 637.7 296 675.2 284.8C712.7 273.7 750.3 288.3 787.8 285.5C825.3 282.7 862.7 262.3 881.3 252.2L900 242L900 601L881.3 601C862.7 601 825.3 601 787.8 601C750.3 601 712.7 601 675.2 601C637.7 601 600.3 601 562.8 601C525.3 601 487.7 601 450.2 601C412.7 601 375.3 601 337.8 601C300.3 601 262.7 601 225.2 601C187.7 601 150.3 601 112.8 601C75.3 601 37.7 601 18.8 601L0 601Z" fill="#FAC748" stroke-linecap="round" stroke-linejoin="miter"></path></svg>